<?xml version="1.0" encoding="utf-8" standalone="no"?>
<!DOCTYPE svg PUBLIC "-//W3C//DTD SVG 1.1//EN"
  "http://www.w3.org/Graphics/SVG/1.1/DTD/svg11.dtd">
<!-- Created with matplotlib (https://matplotlib.org/) -->
<svg height="345.6pt" version="1.1" viewBox="0 0 460.8 345.6" width="460.8pt" xmlns="http://www.w3.org/2000/svg" xmlns:xlink="http://www.w3.org/1999/xlink">
 <defs>
  <style type="text/css">
*{stroke-linecap:butt;stroke-linejoin:round;}
  </style>
 </defs>
 <g id="figure_1">
  <g id="patch_1">
   <path d="M 0 345.6 
L 460.8 345.6 
L 460.8 0 
L 0 0 
z
" style="fill:#ffffff;"/>
  </g>
  <g id="axes_1">
   <g id="patch_2">
    <path d="M 57.6 307.584 
L 414.72 307.584 
L 414.72 41.472 
L 57.6 41.472 
z
" style="fill:#ffffff;"/>
   </g>
   <g id="matplotlib.axis_1">
    <g id="xtick_1">
     <g id="line2d_1">
      <path clip-path="url(#pfc99328310)" d="M 73.832727 307.584 
L 73.832727 41.472 
" style="fill:none;stroke:#b0b0b0;stroke-linecap:square;stroke-width:0.8;"/>
     </g>
     <g id="line2d_2">
      <defs>
       <path d="M 0 0 
L 0 3.5 
" id="m4b5d09b675" style="stroke:#000000;stroke-width:0.8;"/>
      </defs>
      <g>
       <use style="stroke:#000000;stroke-width:0.8;" x="73.832727" xlink:href="#m4b5d09b675" y="307.584"/>
      </g>
     </g>
     <g id="text_1">
      <!-- 0.0 -->
      <defs>
       <path d="M 31.78125 66.40625 
Q 24.171875 66.40625 20.328125 58.90625 
Q 16.5 51.421875 16.5 36.375 
Q 16.5 21.390625 20.328125 13.890625 
Q 24.171875 6.390625 31.78125 6.390625 
Q 39.453125 6.390625 43.28125 13.890625 
Q 47.125 21.390625 47.125 36.375 
Q 47.125 51.421875 43.28125 58.90625 
Q 39.453125 66.40625 31.78125 66.40625 
z
M 31.78125 74.21875 
Q 44.046875 74.21875 50.515625 64.515625 
Q 56.984375 54.828125 56.984375 36.375 
Q 56.984375 17.96875 50.515625 8.265625 
Q 44.046875 -1.421875 31.78125 -1.421875 
Q 19.53125 -1.421875 13.0625 8.265625 
Q 6.59375 17.96875 6.59375 36.375 
Q 6.59375 54.828125 13.0625 64.515625 
Q 19.53125 74.21875 31.78125 74.21875 
z
" id="DejaVuSans-48"/>
       <path d="M 10.6875 12.40625 
L 21 12.40625 
L 21 0 
L 10.6875 0 
z
" id="DejaVuSans-46"/>
      </defs>
      <g transform="translate(65.881165 322.182437)scale(0.1 -0.1)">
       <use xlink:href="#DejaVuSans-48"/>
       <use x="63.623047" xlink:href="#DejaVuSans-46"/>
       <use x="95.410156" xlink:href="#DejaVuSans-48"/>
      </g>
     </g>
    </g>
    <g id="xtick_2">
     <g id="line2d_3">
      <path clip-path="url(#pfc99328310)" d="M 138.763636 307.584 
L 138.763636 41.472 
" style="fill:none;stroke:#b0b0b0;stroke-linecap:square;stroke-width:0.8;"/>
     </g>
     <g id="line2d_4">
      <g>
       <use style="stroke:#000000;stroke-width:0.8;" x="138.763636" xlink:href="#m4b5d09b675" y="307.584"/>
      </g>
     </g>
     <g id="text_2">
      <!-- 0.2 -->
      <defs>
       <path d="M 19.1875 8.296875 
L 53.609375 8.296875 
L 53.609375 0 
L 7.328125 0 
L 7.328125 8.296875 
Q 12.9375 14.109375 22.625 23.890625 
Q 32.328125 33.6875 34.8125 36.53125 
Q 39.546875 41.84375 41.421875 45.53125 
Q 43.3125 49.21875 43.3125 52.78125 
Q 43.3125 58.59375 39.234375 62.25 
Q 35.15625 65.921875 28.609375 65.921875 
Q 23.96875 65.921875 18.8125 64.3125 
Q 13.671875 62.703125 7.8125 59.421875 
L 7.8125 69.390625 
Q 13.765625 71.78125 18.9375 73 
Q 24.125 74.21875 28.421875 74.21875 
Q 39.75 74.21875 46.484375 68.546875 
Q 53.21875 62.890625 53.21875 53.421875 
Q 53.21875 48.921875 51.53125 44.890625 
Q 49.859375 40.875 45.40625 35.40625 
Q 44.1875 33.984375 37.640625 27.21875 
Q 31.109375 20.453125 19.1875 8.296875 
z
" id="DejaVuSans-50"/>
      </defs>
      <g transform="translate(130.812074 322.182437)scale(0.1 -0.1)">
       <use xlink:href="#DejaVuSans-48"/>
       <use x="63.623047" xlink:href="#DejaVuSans-46"/>
       <use x="95.410156" xlink:href="#DejaVuSans-50"/>
      </g>
     </g>
    </g>
    <g id="xtick_3">
     <g id="line2d_5">
      <path clip-path="url(#pfc99328310)" d="M 203.694545 307.584 
L 203.694545 41.472 
" style="fill:none;stroke:#b0b0b0;stroke-linecap:square;stroke-width:0.8;"/>
     </g>
     <g id="line2d_6">
      <g>
       <use style="stroke:#000000;stroke-width:0.8;" x="203.694545" xlink:href="#m4b5d09b675" y="307.584"/>
      </g>
     </g>
     <g id="text_3">
      <!-- 0.4 -->
      <defs>
       <path d="M 37.796875 64.3125 
L 12.890625 25.390625 
L 37.796875 25.390625 
z
M 35.203125 72.90625 
L 47.609375 72.90625 
L 47.609375 25.390625 
L 58.015625 25.390625 
L 58.015625 17.1875 
L 47.609375 17.1875 
L 47.609375 0 
L 37.796875 0 
L 37.796875 17.1875 
L 4.890625 17.1875 
L 4.890625 26.703125 
z
" id="DejaVuSans-52"/>
      </defs>
      <g transform="translate(195.742983 322.182437)scale(0.1 -0.1)">
       <use xlink:href="#DejaVuSans-48"/>
       <use x="63.623047" xlink:href="#DejaVuSans-46"/>
       <use x="95.410156" xlink:href="#DejaVuSans-52"/>
      </g>
     </g>
    </g>
    <g id="xtick_4">
     <g id="line2d_7">
      <path clip-path="url(#pfc99328310)" d="M 268.625455 307.584 
L 268.625455 41.472 
" style="fill:none;stroke:#b0b0b0;stroke-linecap:square;stroke-width:0.8;"/>
     </g>
     <g id="line2d_8">
      <g>
       <use style="stroke:#000000;stroke-width:0.8;" x="268.625455" xlink:href="#m4b5d09b675" y="307.584"/>
      </g>
     </g>
     <g id="text_4">
      <!-- 0.6 -->
      <defs>
       <path d="M 33.015625 40.375 
Q 26.375 40.375 22.484375 35.828125 
Q 18.609375 31.296875 18.609375 23.390625 
Q 18.609375 15.53125 22.484375 10.953125 
Q 26.375 6.390625 33.015625 6.390625 
Q 39.65625 6.390625 43.53125 10.953125 
Q 47.40625 15.53125 47.40625 23.390625 
Q 47.40625 31.296875 43.53125 35.828125 
Q 39.65625 40.375 33.015625 40.375 
z
M 52.59375 71.296875 
L 52.59375 62.3125 
Q 48.875 64.0625 45.09375 64.984375 
Q 41.3125 65.921875 37.59375 65.921875 
Q 27.828125 65.921875 22.671875 59.328125 
Q 17.53125 52.734375 16.796875 39.40625 
Q 19.671875 43.65625 24.015625 45.921875 
Q 28.375 48.1875 33.59375 48.1875 
Q 44.578125 48.1875 50.953125 41.515625 
Q 57.328125 34.859375 57.328125 23.390625 
Q 57.328125 12.15625 50.6875 5.359375 
Q 44.046875 -1.421875 33.015625 -1.421875 
Q 20.359375 -1.421875 13.671875 8.265625 
Q 6.984375 17.96875 6.984375 36.375 
Q 6.984375 53.65625 15.1875 63.9375 
Q 23.390625 74.21875 37.203125 74.21875 
Q 40.921875 74.21875 44.703125 73.484375 
Q 48.484375 72.75 52.59375 71.296875 
z
" id="DejaVuSans-54"/>
      </defs>
      <g transform="translate(260.673892 322.182437)scale(0.1 -0.1)">
       <use xlink:href="#DejaVuSans-48"/>
       <use x="63.623047" xlink:href="#DejaVuSans-46"/>
       <use x="95.410156" xlink:href="#DejaVuSans-54"/>
      </g>
     </g>
    </g>
    <g id="xtick_5">
     <g id="line2d_9">
      <path clip-path="url(#pfc99328310)" d="M 333.556364 307.584 
L 333.556364 41.472 
" style="fill:none;stroke:#b0b0b0;stroke-linecap:square;stroke-width:0.8;"/>
     </g>
     <g id="line2d_10">
      <g>
       <use style="stroke:#000000;stroke-width:0.8;" x="333.556364" xlink:href="#m4b5d09b675" y="307.584"/>
      </g>
     </g>
     <g id="text_5">
      <!-- 0.8 -->
      <defs>
       <path d="M 31.78125 34.625 
Q 24.75 34.625 20.71875 30.859375 
Q 16.703125 27.09375 16.703125 20.515625 
Q 16.703125 13.921875 20.71875 10.15625 
Q 24.75 6.390625 31.78125 6.390625 
Q 38.8125 6.390625 42.859375 10.171875 
Q 46.921875 13.96875 46.921875 20.515625 
Q 46.921875 27.09375 42.890625 30.859375 
Q 38.875 34.625 31.78125 34.625 
z
M 21.921875 38.8125 
Q 15.578125 40.375 12.03125 44.71875 
Q 8.5 49.078125 8.5 55.328125 
Q 8.5 64.0625 14.71875 69.140625 
Q 20.953125 74.21875 31.78125 74.21875 
Q 42.671875 74.21875 48.875 69.140625 
Q 55.078125 64.0625 55.078125 55.328125 
Q 55.078125 49.078125 51.53125 44.71875 
Q 48 40.375 41.703125 38.8125 
Q 48.828125 37.15625 52.796875 32.3125 
Q 56.78125 27.484375 56.78125 20.515625 
Q 56.78125 9.90625 50.3125 4.234375 
Q 43.84375 -1.421875 31.78125 -1.421875 
Q 19.734375 -1.421875 13.25 4.234375 
Q 6.78125 9.90625 6.78125 20.515625 
Q 6.78125 27.484375 10.78125 32.3125 
Q 14.796875 37.15625 21.921875 38.8125 
z
M 18.3125 54.390625 
Q 18.3125 48.734375 21.84375 45.5625 
Q 25.390625 42.390625 31.78125 42.390625 
Q 38.140625 42.390625 41.71875 45.5625 
Q 45.3125 48.734375 45.3125 54.390625 
Q 45.3125 60.0625 41.71875 63.234375 
Q 38.140625 66.40625 31.78125 66.40625 
Q 25.390625 66.40625 21.84375 63.234375 
Q 18.3125 60.0625 18.3125 54.390625 
z
" id="DejaVuSans-56"/>
      </defs>
      <g transform="translate(325.604801 322.182437)scale(0.1 -0.1)">
       <use xlink:href="#DejaVuSans-48"/>
       <use x="63.623047" xlink:href="#DejaVuSans-46"/>
       <use x="95.410156" xlink:href="#DejaVuSans-56"/>
      </g>
     </g>
    </g>
    <g id="xtick_6">
     <g id="line2d_11">
      <path clip-path="url(#pfc99328310)" d="M 398.487273 307.584 
L 398.487273 41.472 
" style="fill:none;stroke:#b0b0b0;stroke-linecap:square;stroke-width:0.8;"/>
     </g>
     <g id="line2d_12">
      <g>
       <use style="stroke:#000000;stroke-width:0.8;" x="398.487273" xlink:href="#m4b5d09b675" y="307.584"/>
      </g>
     </g>
     <g id="text_6">
      <!-- 1.0 -->
      <defs>
       <path d="M 12.40625 8.296875 
L 28.515625 8.296875 
L 28.515625 63.921875 
L 10.984375 60.40625 
L 10.984375 69.390625 
L 28.421875 72.90625 
L 38.28125 72.90625 
L 38.28125 8.296875 
L 54.390625 8.296875 
L 54.390625 0 
L 12.40625 0 
z
" id="DejaVuSans-49"/>
      </defs>
      <g transform="translate(390.53571 322.182437)scale(0.1 -0.1)">
       <use xlink:href="#DejaVuSans-49"/>
       <use x="63.623047" xlink:href="#DejaVuSans-46"/>
       <use x="95.410156" xlink:href="#DejaVuSans-48"/>
      </g>
     </g>
    </g>
    <g id="text_7">
     <!-- % of total possible combinations tried -->
     <defs>
      <path d="M 72.703125 32.078125 
Q 68.453125 32.078125 66.03125 28.46875 
Q 63.625 24.859375 63.625 18.40625 
Q 63.625 12.0625 66.03125 8.421875 
Q 68.453125 4.78125 72.703125 4.78125 
Q 76.859375 4.78125 79.265625 8.421875 
Q 81.6875 12.0625 81.6875 18.40625 
Q 81.6875 24.8125 79.265625 28.4375 
Q 76.859375 32.078125 72.703125 32.078125 
z
M 72.703125 38.28125 
Q 80.421875 38.28125 84.953125 32.90625 
Q 89.5 27.546875 89.5 18.40625 
Q 89.5 9.28125 84.9375 3.921875 
Q 80.375 -1.421875 72.703125 -1.421875 
Q 64.890625 -1.421875 60.34375 3.921875 
Q 55.8125 9.28125 55.8125 18.40625 
Q 55.8125 27.59375 60.375 32.9375 
Q 64.9375 38.28125 72.703125 38.28125 
z
M 22.3125 68.015625 
Q 18.109375 68.015625 15.6875 64.375 
Q 13.28125 60.75 13.28125 54.390625 
Q 13.28125 47.953125 15.671875 44.328125 
Q 18.0625 40.71875 22.3125 40.71875 
Q 26.5625 40.71875 28.96875 44.328125 
Q 31.390625 47.953125 31.390625 54.390625 
Q 31.390625 60.6875 28.953125 64.34375 
Q 26.515625 68.015625 22.3125 68.015625 
z
M 66.40625 74.21875 
L 74.21875 74.21875 
L 28.609375 -1.421875 
L 20.796875 -1.421875 
z
M 22.3125 74.21875 
Q 30.03125 74.21875 34.609375 68.875 
Q 39.203125 63.53125 39.203125 54.390625 
Q 39.203125 45.171875 34.640625 39.84375 
Q 30.078125 34.515625 22.3125 34.515625 
Q 14.546875 34.515625 10.03125 39.859375 
Q 5.515625 45.21875 5.515625 54.390625 
Q 5.515625 63.484375 10.046875 68.84375 
Q 14.59375 74.21875 22.3125 74.21875 
z
" id="DejaVuSans-37"/>
      <path id="DejaVuSans-32"/>
      <path d="M 30.609375 48.390625 
Q 23.390625 48.390625 19.1875 42.75 
Q 14.984375 37.109375 14.984375 27.296875 
Q 14.984375 17.484375 19.15625 11.84375 
Q 23.34375 6.203125 30.609375 6.203125 
Q 37.796875 6.203125 41.984375 11.859375 
Q 46.1875 17.53125 46.1875 27.296875 
Q 46.1875 37.015625 41.984375 42.703125 
Q 37.796875 48.390625 30.609375 48.390625 
z
M 30.609375 56 
Q 42.328125 56 49.015625 48.375 
Q 55.71875 40.765625 55.71875 27.296875 
Q 55.71875 13.875 49.015625 6.21875 
Q 42.328125 -1.421875 30.609375 -1.421875 
Q 18.84375 -1.421875 12.171875 6.21875 
Q 5.515625 13.875 5.515625 27.296875 
Q 5.515625 40.765625 12.171875 48.375 
Q 18.84375 56 30.609375 56 
z
" id="DejaVuSans-111"/>
      <path d="M 37.109375 75.984375 
L 37.109375 68.5 
L 28.515625 68.5 
Q 23.6875 68.5 21.796875 66.546875 
Q 19.921875 64.59375 19.921875 59.515625 
L 19.921875 54.6875 
L 34.71875 54.6875 
L 34.71875 47.703125 
L 19.921875 47.703125 
L 19.921875 0 
L 10.890625 0 
L 10.890625 47.703125 
L 2.296875 47.703125 
L 2.296875 54.6875 
L 10.890625 54.6875 
L 10.890625 58.5 
Q 10.890625 67.625 15.140625 71.796875 
Q 19.390625 75.984375 28.609375 75.984375 
z
" id="DejaVuSans-102"/>
      <path d="M 18.3125 70.21875 
L 18.3125 54.6875 
L 36.8125 54.6875 
L 36.8125 47.703125 
L 18.3125 47.703125 
L 18.3125 18.015625 
Q 18.3125 11.328125 20.140625 9.421875 
Q 21.96875 7.515625 27.59375 7.515625 
L 36.8125 7.515625 
L 36.8125 0 
L 27.59375 0 
Q 17.1875 0 13.234375 3.875 
Q 9.28125 7.765625 9.28125 18.015625 
L 9.28125 47.703125 
L 2.6875 47.703125 
L 2.6875 54.6875 
L 9.28125 54.6875 
L 9.28125 70.21875 
z
" id="DejaVuSans-116"/>
      <path d="M 34.28125 27.484375 
Q 23.390625 27.484375 19.1875 25 
Q 14.984375 22.515625 14.984375 16.5 
Q 14.984375 11.71875 18.140625 8.90625 
Q 21.296875 6.109375 26.703125 6.109375 
Q 34.1875 6.109375 38.703125 11.40625 
Q 43.21875 16.703125 43.21875 25.484375 
L 43.21875 27.484375 
z
M 52.203125 31.203125 
L 52.203125 0 
L 43.21875 0 
L 43.21875 8.296875 
Q 40.140625 3.328125 35.546875 0.953125 
Q 30.953125 -1.421875 24.3125 -1.421875 
Q 15.921875 -1.421875 10.953125 3.296875 
Q 6 8.015625 6 15.921875 
Q 6 25.140625 12.171875 29.828125 
Q 18.359375 34.515625 30.609375 34.515625 
L 43.21875 34.515625 
L 43.21875 35.40625 
Q 43.21875 41.609375 39.140625 45 
Q 35.0625 48.390625 27.6875 48.390625 
Q 23 48.390625 18.546875 47.265625 
Q 14.109375 46.140625 10.015625 43.890625 
L 10.015625 52.203125 
Q 14.9375 54.109375 19.578125 55.046875 
Q 24.21875 56 28.609375 56 
Q 40.484375 56 46.34375 49.84375 
Q 52.203125 43.703125 52.203125 31.203125 
z
" id="DejaVuSans-97"/>
      <path d="M 9.421875 75.984375 
L 18.40625 75.984375 
L 18.40625 0 
L 9.421875 0 
z
" id="DejaVuSans-108"/>
      <path d="M 18.109375 8.203125 
L 18.109375 -20.796875 
L 9.078125 -20.796875 
L 9.078125 54.6875 
L 18.109375 54.6875 
L 18.109375 46.390625 
Q 20.953125 51.265625 25.265625 53.625 
Q 29.59375 56 35.59375 56 
Q 45.5625 56 51.78125 48.09375 
Q 58.015625 40.1875 58.015625 27.296875 
Q 58.015625 14.40625 51.78125 6.484375 
Q 45.5625 -1.421875 35.59375 -1.421875 
Q 29.59375 -1.421875 25.265625 0.953125 
Q 20.953125 3.328125 18.109375 8.203125 
z
M 48.6875 27.296875 
Q 48.6875 37.203125 44.609375 42.84375 
Q 40.53125 48.484375 33.40625 48.484375 
Q 26.265625 48.484375 22.1875 42.84375 
Q 18.109375 37.203125 18.109375 27.296875 
Q 18.109375 17.390625 22.1875 11.75 
Q 26.265625 6.109375 33.40625 6.109375 
Q 40.53125 6.109375 44.609375 11.75 
Q 48.6875 17.390625 48.6875 27.296875 
z
" id="DejaVuSans-112"/>
      <path d="M 44.28125 53.078125 
L 44.28125 44.578125 
Q 40.484375 46.53125 36.375 47.5 
Q 32.28125 48.484375 27.875 48.484375 
Q 21.1875 48.484375 17.84375 46.4375 
Q 14.5 44.390625 14.5 40.28125 
Q 14.5 37.15625 16.890625 35.375 
Q 19.28125 33.59375 26.515625 31.984375 
L 29.59375 31.296875 
Q 39.15625 29.25 43.1875 25.515625 
Q 47.21875 21.78125 47.21875 15.09375 
Q 47.21875 7.46875 41.1875 3.015625 
Q 35.15625 -1.421875 24.609375 -1.421875 
Q 20.21875 -1.421875 15.453125 -0.5625 
Q 10.6875 0.296875 5.421875 2 
L 5.421875 11.28125 
Q 10.40625 8.6875 15.234375 7.390625 
Q 20.0625 6.109375 24.8125 6.109375 
Q 31.15625 6.109375 34.5625 8.28125 
Q 37.984375 10.453125 37.984375 14.40625 
Q 37.984375 18.0625 35.515625 20.015625 
Q 33.0625 21.96875 24.703125 23.78125 
L 21.578125 24.515625 
Q 13.234375 26.265625 9.515625 29.90625 
Q 5.8125 33.546875 5.8125 39.890625 
Q 5.8125 47.609375 11.28125 51.796875 
Q 16.75 56 26.8125 56 
Q 31.78125 56 36.171875 55.265625 
Q 40.578125 54.546875 44.28125 53.078125 
z
" id="DejaVuSans-115"/>
      <path d="M 9.421875 54.6875 
L 18.40625 54.6875 
L 18.40625 0 
L 9.421875 0 
z
M 9.421875 75.984375 
L 18.40625 75.984375 
L 18.40625 64.59375 
L 9.421875 64.59375 
z
" id="DejaVuSans-105"/>
      <path d="M 48.6875 27.296875 
Q 48.6875 37.203125 44.609375 42.84375 
Q 40.53125 48.484375 33.40625 48.484375 
Q 26.265625 48.484375 22.1875 42.84375 
Q 18.109375 37.203125 18.109375 27.296875 
Q 18.109375 17.390625 22.1875 11.75 
Q 26.265625 6.109375 33.40625 6.109375 
Q 40.53125 6.109375 44.609375 11.75 
Q 48.6875 17.390625 48.6875 27.296875 
z
M 18.109375 46.390625 
Q 20.953125 51.265625 25.265625 53.625 
Q 29.59375 56 35.59375 56 
Q 45.5625 56 51.78125 48.09375 
Q 58.015625 40.1875 58.015625 27.296875 
Q 58.015625 14.40625 51.78125 6.484375 
Q 45.5625 -1.421875 35.59375 -1.421875 
Q 29.59375 -1.421875 25.265625 0.953125 
Q 20.953125 3.328125 18.109375 8.203125 
L 18.109375 0 
L 9.078125 0 
L 9.078125 75.984375 
L 18.109375 75.984375 
z
" id="DejaVuSans-98"/>
      <path d="M 56.203125 29.59375 
L 56.203125 25.203125 
L 14.890625 25.203125 
Q 15.484375 15.921875 20.484375 11.0625 
Q 25.484375 6.203125 34.421875 6.203125 
Q 39.59375 6.203125 44.453125 7.46875 
Q 49.3125 8.734375 54.109375 11.28125 
L 54.109375 2.78125 
Q 49.265625 0.734375 44.1875 -0.34375 
Q 39.109375 -1.421875 33.890625 -1.421875 
Q 20.796875 -1.421875 13.15625 6.1875 
Q 5.515625 13.8125 5.515625 26.8125 
Q 5.515625 40.234375 12.765625 48.109375 
Q 20.015625 56 32.328125 56 
Q 43.359375 56 49.78125 48.890625 
Q 56.203125 41.796875 56.203125 29.59375 
z
M 47.21875 32.234375 
Q 47.125 39.59375 43.09375 43.984375 
Q 39.0625 48.390625 32.421875 48.390625 
Q 24.90625 48.390625 20.390625 44.140625 
Q 15.875 39.890625 15.1875 32.171875 
z
" id="DejaVuSans-101"/>
      <path d="M 48.78125 52.59375 
L 48.78125 44.1875 
Q 44.96875 46.296875 41.140625 47.34375 
Q 37.3125 48.390625 33.40625 48.390625 
Q 24.65625 48.390625 19.8125 42.84375 
Q 14.984375 37.3125 14.984375 27.296875 
Q 14.984375 17.28125 19.8125 11.734375 
Q 24.65625 6.203125 33.40625 6.203125 
Q 37.3125 6.203125 41.140625 7.25 
Q 44.96875 8.296875 48.78125 10.40625 
L 48.78125 2.09375 
Q 45.015625 0.34375 40.984375 -0.53125 
Q 36.96875 -1.421875 32.421875 -1.421875 
Q 20.0625 -1.421875 12.78125 6.34375 
Q 5.515625 14.109375 5.515625 27.296875 
Q 5.515625 40.671875 12.859375 48.328125 
Q 20.21875 56 33.015625 56 
Q 37.15625 56 41.109375 55.140625 
Q 45.0625 54.296875 48.78125 52.59375 
z
" id="DejaVuSans-99"/>
      <path d="M 52 44.1875 
Q 55.375 50.25 60.0625 53.125 
Q 64.75 56 71.09375 56 
Q 79.640625 56 84.28125 50.015625 
Q 88.921875 44.046875 88.921875 33.015625 
L 88.921875 0 
L 79.890625 0 
L 79.890625 32.71875 
Q 79.890625 40.578125 77.09375 44.375 
Q 74.3125 48.1875 68.609375 48.1875 
Q 61.625 48.1875 57.5625 43.546875 
Q 53.515625 38.921875 53.515625 30.90625 
L 53.515625 0 
L 44.484375 0 
L 44.484375 32.71875 
Q 44.484375 40.625 41.703125 44.40625 
Q 38.921875 48.1875 33.109375 48.1875 
Q 26.21875 48.1875 22.15625 43.53125 
Q 18.109375 38.875 18.109375 30.90625 
L 18.109375 0 
L 9.078125 0 
L 9.078125 54.6875 
L 18.109375 54.6875 
L 18.109375 46.1875 
Q 21.1875 51.21875 25.484375 53.609375 
Q 29.78125 56 35.6875 56 
Q 41.65625 56 45.828125 52.96875 
Q 50 49.953125 52 44.1875 
z
" id="DejaVuSans-109"/>
      <path d="M 54.890625 33.015625 
L 54.890625 0 
L 45.90625 0 
L 45.90625 32.71875 
Q 45.90625 40.484375 42.875 44.328125 
Q 39.84375 48.1875 33.796875 48.1875 
Q 26.515625 48.1875 22.3125 43.546875 
Q 18.109375 38.921875 18.109375 30.90625 
L 18.109375 0 
L 9.078125 0 
L 9.078125 54.6875 
L 18.109375 54.6875 
L 18.109375 46.1875 
Q 21.34375 51.125 25.703125 53.5625 
Q 30.078125 56 35.796875 56 
Q 45.21875 56 50.046875 50.171875 
Q 54.890625 44.34375 54.890625 33.015625 
z
" id="DejaVuSans-110"/>
      <path d="M 41.109375 46.296875 
Q 39.59375 47.171875 37.8125 47.578125 
Q 36.03125 48 33.890625 48 
Q 26.265625 48 22.1875 43.046875 
Q 18.109375 38.09375 18.109375 28.8125 
L 18.109375 0 
L 9.078125 0 
L 9.078125 54.6875 
L 18.109375 54.6875 
L 18.109375 46.1875 
Q 20.953125 51.171875 25.484375 53.578125 
Q 30.03125 56 36.53125 56 
Q 37.453125 56 38.578125 55.875 
Q 39.703125 55.765625 41.0625 55.515625 
z
" id="DejaVuSans-114"/>
      <path d="M 45.40625 46.390625 
L 45.40625 75.984375 
L 54.390625 75.984375 
L 54.390625 0 
L 45.40625 0 
L 45.40625 8.203125 
Q 42.578125 3.328125 38.25 0.953125 
Q 33.9375 -1.421875 27.875 -1.421875 
Q 17.96875 -1.421875 11.734375 6.484375 
Q 5.515625 14.40625 5.515625 27.296875 
Q 5.515625 40.1875 11.734375 48.09375 
Q 17.96875 56 27.875 56 
Q 33.9375 56 38.25 53.625 
Q 42.578125 51.265625 45.40625 46.390625 
z
M 14.796875 27.296875 
Q 14.796875 17.390625 18.875 11.75 
Q 22.953125 6.109375 30.078125 6.109375 
Q 37.203125 6.109375 41.296875 11.75 
Q 45.40625 17.390625 45.40625 27.296875 
Q 45.40625 37.203125 41.296875 42.84375 
Q 37.203125 48.484375 30.078125 48.484375 
Q 22.953125 48.484375 18.875 42.84375 
Q 14.796875 37.203125 14.796875 27.296875 
z
" id="DejaVuSans-100"/>
     </defs>
     <g transform="translate(141.427188 335.860562)scale(0.1 -0.1)">
      <use xlink:href="#DejaVuSans-37"/>
      <use x="95.019531" xlink:href="#DejaVuSans-32"/>
      <use x="126.806641" xlink:href="#DejaVuSans-111"/>
      <use x="187.988281" xlink:href="#DejaVuSans-102"/>
      <use x="223.193359" xlink:href="#DejaVuSans-32"/>
      <use x="254.980469" xlink:href="#DejaVuSans-116"/>
      <use x="294.189453" xlink:href="#DejaVuSans-111"/>
      <use x="355.371094" xlink:href="#DejaVuSans-116"/>
      <use x="394.580078" xlink:href="#DejaVuSans-97"/>
      <use x="455.859375" xlink:href="#DejaVuSans-108"/>
      <use x="483.642578" xlink:href="#DejaVuSans-32"/>
      <use x="515.429688" xlink:href="#DejaVuSans-112"/>
      <use x="578.90625" xlink:href="#DejaVuSans-111"/>
      <use x="640.087891" xlink:href="#DejaVuSans-115"/>
      <use x="692.1875" xlink:href="#DejaVuSans-115"/>
      <use x="744.287109" xlink:href="#DejaVuSans-105"/>
      <use x="772.070312" xlink:href="#DejaVuSans-98"/>
      <use x="835.546875" xlink:href="#DejaVuSans-108"/>
      <use x="863.330078" xlink:href="#DejaVuSans-101"/>
      <use x="924.853516" xlink:href="#DejaVuSans-32"/>
      <use x="956.640625" xlink:href="#DejaVuSans-99"/>
      <use x="1011.621094" xlink:href="#DejaVuSans-111"/>
      <use x="1072.802734" xlink:href="#DejaVuSans-109"/>
      <use x="1170.214844" xlink:href="#DejaVuSans-98"/>
      <use x="1233.691406" xlink:href="#DejaVuSans-105"/>
      <use x="1261.474609" xlink:href="#DejaVuSans-110"/>
      <use x="1324.853516" xlink:href="#DejaVuSans-97"/>
      <use x="1386.132812" xlink:href="#DejaVuSans-116"/>
      <use x="1425.341797" xlink:href="#DejaVuSans-105"/>
      <use x="1453.125" xlink:href="#DejaVuSans-111"/>
      <use x="1514.306641" xlink:href="#DejaVuSans-110"/>
      <use x="1577.685547" xlink:href="#DejaVuSans-115"/>
      <use x="1629.785156" xlink:href="#DejaVuSans-32"/>
      <use x="1661.572266" xlink:href="#DejaVuSans-116"/>
      <use x="1700.78125" xlink:href="#DejaVuSans-114"/>
      <use x="1741.894531" xlink:href="#DejaVuSans-105"/>
      <use x="1769.677734" xlink:href="#DejaVuSans-101"/>
      <use x="1831.201172" xlink:href="#DejaVuSans-100"/>
     </g>
    </g>
   </g>
   <g id="matplotlib.axis_2">
    <g id="ytick_1">
     <g id="line2d_13">
      <path clip-path="url(#pfc99328310)" d="M 57.6 295.488 
L 414.72 295.488 
" style="fill:none;stroke:#b0b0b0;stroke-linecap:square;stroke-width:0.8;"/>
     </g>
     <g id="line2d_14">
      <defs>
       <path d="M 0 0 
L -3.5 0 
" id="m88b021431a" style="stroke:#000000;stroke-width:0.8;"/>
      </defs>
      <g>
       <use style="stroke:#000000;stroke-width:0.8;" x="57.6" xlink:href="#m88b021431a" y="295.488"/>
      </g>
     </g>
     <g id="text_8">
      <!-- 0.0 -->
      <g transform="translate(34.696875 299.287219)scale(0.1 -0.1)">
       <use xlink:href="#DejaVuSans-48"/>
       <use x="63.623047" xlink:href="#DejaVuSans-46"/>
       <use x="95.410156" xlink:href="#DejaVuSans-48"/>
      </g>
     </g>
    </g>
    <g id="ytick_2">
     <g id="line2d_15">
      <path clip-path="url(#pfc99328310)" d="M 57.6 247.104 
L 414.72 247.104 
" style="fill:none;stroke:#b0b0b0;stroke-linecap:square;stroke-width:0.8;"/>
     </g>
     <g id="line2d_16">
      <g>
       <use style="stroke:#000000;stroke-width:0.8;" x="57.6" xlink:href="#m88b021431a" y="247.104"/>
      </g>
     </g>
     <g id="text_9">
      <!-- 0.2 -->
      <g transform="translate(34.696875 250.903219)scale(0.1 -0.1)">
       <use xlink:href="#DejaVuSans-48"/>
       <use x="63.623047" xlink:href="#DejaVuSans-46"/>
       <use x="95.410156" xlink:href="#DejaVuSans-50"/>
      </g>
     </g>
    </g>
    <g id="ytick_3">
     <g id="line2d_17">
      <path clip-path="url(#pfc99328310)" d="M 57.6 198.72 
L 414.72 198.72 
" style="fill:none;stroke:#b0b0b0;stroke-linecap:square;stroke-width:0.8;"/>
     </g>
     <g id="line2d_18">
      <g>
       <use style="stroke:#000000;stroke-width:0.8;" x="57.6" xlink:href="#m88b021431a" y="198.72"/>
      </g>
     </g>
     <g id="text_10">
      <!-- 0.4 -->
      <g transform="translate(34.696875 202.519219)scale(0.1 -0.1)">
       <use xlink:href="#DejaVuSans-48"/>
       <use x="63.623047" xlink:href="#DejaVuSans-46"/>
       <use x="95.410156" xlink:href="#DejaVuSans-52"/>
      </g>
     </g>
    </g>
    <g id="ytick_4">
     <g id="line2d_19">
      <path clip-path="url(#pfc99328310)" d="M 57.6 150.336 
L 414.72 150.336 
" style="fill:none;stroke:#b0b0b0;stroke-linecap:square;stroke-width:0.8;"/>
     </g>
     <g id="line2d_20">
      <g>
       <use style="stroke:#000000;stroke-width:0.8;" x="57.6" xlink:href="#m88b021431a" y="150.336"/>
      </g>
     </g>
     <g id="text_11">
      <!-- 0.6 -->
      <g transform="translate(34.696875 154.135219)scale(0.1 -0.1)">
       <use xlink:href="#DejaVuSans-48"/>
       <use x="63.623047" xlink:href="#DejaVuSans-46"/>
       <use x="95.410156" xlink:href="#DejaVuSans-54"/>
      </g>
     </g>
    </g>
    <g id="ytick_5">
     <g id="line2d_21">
      <path clip-path="url(#pfc99328310)" d="M 57.6 101.952 
L 414.72 101.952 
" style="fill:none;stroke:#b0b0b0;stroke-linecap:square;stroke-width:0.8;"/>
     </g>
     <g id="line2d_22">
      <g>
       <use style="stroke:#000000;stroke-width:0.8;" x="57.6" xlink:href="#m88b021431a" y="101.952"/>
      </g>
     </g>
     <g id="text_12">
      <!-- 0.8 -->
      <g transform="translate(34.696875 105.751219)scale(0.1 -0.1)">
       <use xlink:href="#DejaVuSans-48"/>
       <use x="63.623047" xlink:href="#DejaVuSans-46"/>
       <use x="95.410156" xlink:href="#DejaVuSans-56"/>
      </g>
     </g>
    </g>
    <g id="ytick_6">
     <g id="line2d_23">
      <path clip-path="url(#pfc99328310)" d="M 57.6 53.568 
L 414.72 53.568 
" style="fill:none;stroke:#b0b0b0;stroke-linecap:square;stroke-width:0.8;"/>
     </g>
     <g id="line2d_24">
      <g>
       <use style="stroke:#000000;stroke-width:0.8;" x="57.6" xlink:href="#m88b021431a" y="53.568"/>
      </g>
     </g>
     <g id="text_13">
      <!-- 1.0 -->
      <g transform="translate(34.696875 57.367219)scale(0.1 -0.1)">
       <use xlink:href="#DejaVuSans-49"/>
       <use x="63.623047" xlink:href="#DejaVuSans-46"/>
       <use x="95.410156" xlink:href="#DejaVuSans-48"/>
      </g>
     </g>
    </g>
    <g id="text_14">
     <!-- % of real passwords guessed -->
     <defs>
      <path d="M 4.203125 54.6875 
L 13.1875 54.6875 
L 24.421875 12.015625 
L 35.59375 54.6875 
L 46.1875 54.6875 
L 57.421875 12.015625 
L 68.609375 54.6875 
L 77.59375 54.6875 
L 63.28125 0 
L 52.6875 0 
L 40.921875 44.828125 
L 29.109375 0 
L 18.5 0 
z
" id="DejaVuSans-119"/>
      <path d="M 45.40625 27.984375 
Q 45.40625 37.75 41.375 43.109375 
Q 37.359375 48.484375 30.078125 48.484375 
Q 22.859375 48.484375 18.828125 43.109375 
Q 14.796875 37.75 14.796875 27.984375 
Q 14.796875 18.265625 18.828125 12.890625 
Q 22.859375 7.515625 30.078125 7.515625 
Q 37.359375 7.515625 41.375 12.890625 
Q 45.40625 18.265625 45.40625 27.984375 
z
M 54.390625 6.78125 
Q 54.390625 -7.171875 48.1875 -13.984375 
Q 42 -20.796875 29.203125 -20.796875 
Q 24.46875 -20.796875 20.265625 -20.09375 
Q 16.0625 -19.390625 12.109375 -17.921875 
L 12.109375 -9.1875 
Q 16.0625 -11.328125 19.921875 -12.34375 
Q 23.78125 -13.375 27.78125 -13.375 
Q 36.625 -13.375 41.015625 -8.765625 
Q 45.40625 -4.15625 45.40625 5.171875 
L 45.40625 9.625 
Q 42.625 4.78125 38.28125 2.390625 
Q 33.9375 0 27.875 0 
Q 17.828125 0 11.671875 7.65625 
Q 5.515625 15.328125 5.515625 27.984375 
Q 5.515625 40.671875 11.671875 48.328125 
Q 17.828125 56 27.875 56 
Q 33.9375 56 38.28125 53.609375 
Q 42.625 51.21875 45.40625 46.390625 
L 45.40625 54.6875 
L 54.390625 54.6875 
z
" id="DejaVuSans-103"/>
      <path d="M 8.5 21.578125 
L 8.5 54.6875 
L 17.484375 54.6875 
L 17.484375 21.921875 
Q 17.484375 14.15625 20.5 10.265625 
Q 23.53125 6.390625 29.59375 6.390625 
Q 36.859375 6.390625 41.078125 11.03125 
Q 45.3125 15.671875 45.3125 23.6875 
L 45.3125 54.6875 
L 54.296875 54.6875 
L 54.296875 0 
L 45.3125 0 
L 45.3125 8.40625 
Q 42.046875 3.421875 37.71875 1 
Q 33.40625 -1.421875 27.6875 -1.421875 
Q 18.265625 -1.421875 13.375 4.4375 
Q 8.5 10.296875 8.5 21.578125 
z
M 31.109375 56 
z
" id="DejaVuSans-117"/>
     </defs>
     <g transform="translate(28.617187 247.347531)rotate(-90)scale(0.1 -0.1)">
      <use xlink:href="#DejaVuSans-37"/>
      <use x="95.019531" xlink:href="#DejaVuSans-32"/>
      <use x="126.806641" xlink:href="#DejaVuSans-111"/>
      <use x="187.988281" xlink:href="#DejaVuSans-102"/>
      <use x="223.193359" xlink:href="#DejaVuSans-32"/>
      <use x="254.980469" xlink:href="#DejaVuSans-114"/>
      <use x="296.0625" xlink:href="#DejaVuSans-101"/>
      <use x="357.585938" xlink:href="#DejaVuSans-97"/>
      <use x="418.865234" xlink:href="#DejaVuSans-108"/>
      <use x="446.648438" xlink:href="#DejaVuSans-32"/>
      <use x="478.435547" xlink:href="#DejaVuSans-112"/>
      <use x="541.912109" xlink:href="#DejaVuSans-97"/>
      <use x="603.191406" xlink:href="#DejaVuSans-115"/>
      <use x="655.291016" xlink:href="#DejaVuSans-115"/>
      <use x="707.390625" xlink:href="#DejaVuSans-119"/>
      <use x="789.177734" xlink:href="#DejaVuSans-111"/>
      <use x="850.359375" xlink:href="#DejaVuSans-114"/>
      <use x="891.457031" xlink:href="#DejaVuSans-100"/>
      <use x="954.933594" xlink:href="#DejaVuSans-115"/>
      <use x="1007.033203" xlink:href="#DejaVuSans-32"/>
      <use x="1038.820312" xlink:href="#DejaVuSans-103"/>
      <use x="1102.296875" xlink:href="#DejaVuSans-117"/>
      <use x="1165.675781" xlink:href="#DejaVuSans-101"/>
      <use x="1227.199219" xlink:href="#DejaVuSans-115"/>
      <use x="1279.298828" xlink:href="#DejaVuSans-115"/>
      <use x="1331.398438" xlink:href="#DejaVuSans-101"/>
      <use x="1392.921875" xlink:href="#DejaVuSans-100"/>
     </g>
    </g>
   </g>
   <g id="line2d_25">
    <path clip-path="url(#pfc99328310)" d="M 73.832727 295.488 
L 74.157382 290.598025 
L 74.482036 289.015425 
L 74.806691 288.30377 
L 75.456 288.105822 
L 77.079273 288.078049 
L 77.728582 282.238651 
L 78.053236 281.123297 
L 78.377891 280.767981 
L 79.0272 280.497244 
L 80.325818 280.425597 
L 80.650473 280.425467 
L 80.975127 278.385009 
L 81.299782 277.506415 
L 81.624436 277.102314 
L 82.273745 277.006663 
L 83.897018 276.981308 
L 84.546327 274.511382 
L 84.870982 273.874306 
L 85.195636 273.585007 
L 87.143564 273.426804 
L 87.468218 273.426725 
L 87.792873 271.494559 
L 88.117527 270.810092 
L 88.442182 270.517781 
L 89.416145 270.42652 
L 90.714764 270.401964 
L 91.039418 268.915291 
L 91.364073 268.003176 
L 91.688727 267.627902 
L 92.013382 267.429239 
L 93.961309 267.27504 
L 97.532509 267.243766 
L 97.857164 266.65504 
L 98.181818 265.809182 
L 98.506473 265.363775 
L 98.831127 265.165294 
L 100.4544 265.107199 
L 101.103709 265.106279 
L 101.428364 261.445282 
L 102.077673 260.70483 
L 102.726982 260.588934 
L 104.350255 260.562251 
L 104.999564 256.657619 
L 105.648873 256.072533 
L 106.622836 255.852403 
L 107.921455 255.836938 
L 108.570764 254.166788 
L 108.895418 253.787358 
L 109.869382 253.650452 
L 111.168 253.627172 
L 111.817309 250.541368 
L 112.141964 250.027502 
L 112.466618 249.82814 
L 113.440582 249.753458 
L 114.7392 249.738669 
L 115.063855 246.895548 
L 115.388509 246.25925 
L 115.713164 245.983298 
L 116.687127 245.744353 
L 117.985745 245.722526 
L 118.3104 243.723473 
L 118.635055 238.200037 
L 118.959709 236.823216 
L 119.284364 236.411994 
L 119.933673 236.279582 
L 121.556945 236.251421 
L 122.206255 227.783856 
L 122.530909 227.106611 
L 123.504873 226.498449 
L 124.803491 226.434128 
L 125.128145 225.722627 
L 125.4528 221.67039 
L 125.777455 221.129375 
L 126.102109 220.865912 
L 126.751418 220.778453 
L 128.374691 220.753576 
L 128.699345 216.51715 
L 129.348655 215.870531 
L 129.997964 215.690158 
L 131.621236 215.660042 
L 131.945891 214.950007 
L 132.270545 210.89176 
L 132.5952 210.340579 
L 132.919855 210.067796 
L 134.543127 209.769511 
L 135.192436 209.768073 
L 135.517091 205.997142 
L 135.841745 205.147171 
L 136.491055 204.720271 
L 136.815709 204.538207 
L 138.114327 204.468686 
L 138.763636 204.467753 
L 139.088291 198.654338 
L 139.412945 197.929833 
L 139.7376 197.624871 
L 140.386909 197.504933 
L 142.010182 197.475725 
L 142.334836 192.982538 
L 142.659491 191.19069 
L 143.3088 190.439961 
L 143.958109 190.263236 
L 145.581382 190.23129 
L 145.906036 183.424534 
L 146.230691 182.670119 
L 146.88 182.002437 
L 147.853964 181.869755 
L 148.827927 181.858941 
L 149.152582 176.090213 
L 149.477236 174.604055 
L 149.801891 174.127362 
L 150.126545 173.905102 
L 151.100509 173.812767 
L 152.399127 173.79874 
L 152.723782 170.595751 
L 153.373091 170.08266 
L 154.0224 169.996812 
L 155.645673 169.973128 
L 155.970327 167.25534 
L 156.294982 166.582904 
L 156.944291 166.145948 
L 157.5936 166.011319 
L 159.216873 165.986509 
L 159.541527 165.10183 
L 159.866182 164.790527 
L 160.515491 164.611126 
L 162.463418 164.579841 
L 162.788073 161.741256 
L 163.112727 160.079324 
L 163.437382 159.58521 
L 163.762036 159.299482 
L 164.411345 159.208269 
L 166.034618 159.184961 
L 166.359273 154.99046 
L 167.008582 153.998882 
L 167.333236 153.74378 
L 167.982545 153.60117 
L 169.281164 153.576107 
L 169.930473 152.555116 
L 170.255127 152.293325 
L 170.904436 152.163899 
L 172.852364 152.118934 
L 173.177018 148.970492 
L 173.501673 147.967013 
L 174.150982 147.562864 
L 174.800291 147.345555 
L 176.098909 147.278096 
L 176.423564 144.988243 
L 176.748218 141.32776 
L 177.397527 140.615227 
L 178.046836 140.32044 
L 179.670109 140.285397 
L 179.994764 134.731291 
L 180.319418 134.092302 
L 180.644073 133.763677 
L 181.293382 133.600745 
L 182.916655 133.570522 
L 183.241309 131.635111 
L 183.565964 128.249091 
L 184.215273 127.722854 
L 184.864582 127.492249 
L 186.487855 127.457273 
L 186.812509 123.020608 
L 187.137164 121.983006 
L 187.461818 121.713376 
L 188.111127 121.578612 
L 189.7344 121.546627 
L 190.059055 121.059036 
L 190.383709 118.276744 
L 190.708364 117.881011 
L 191.357673 117.581107 
L 192.331636 117.4848 
L 193.3056 117.478759 
L 193.630255 114.586564 
L 193.954909 113.99171 
L 194.279564 113.717469 
L 194.928873 113.59932 
L 196.552145 113.57033 
L 196.8768 113.205266 
L 197.201455 111.215076 
L 198.500073 110.854845 
L 200.123345 110.801729 
L 200.448 108.005521 
L 200.772655 106.728207 
L 203.045236 106.628573 
L 203.694545 106.628229 
L 204.0192 102.773569 
L 204.343855 102.265527 
L 204.993164 101.890818 
L 205.642473 101.753865 
L 206.941091 101.732884 
L 207.265745 98.586714 
L 207.5904 97.61243 
L 207.915055 97.236445 
L 208.564364 97.047258 
L 210.512291 97.013759 
L 210.836945 96.2179 
L 211.1616 95.913625 
L 211.810909 95.74594 
L 213.758836 95.714611 
L 214.083491 95.159344 
L 214.7328 94.539843 
L 215.382109 94.414649 
L 217.005382 94.360695 
L 217.330036 94.360664 
L 217.654691 91.405585 
L 218.304 90.825959 
L 219.277964 90.621615 
L 220.576582 90.604249 
L 221.225891 87.454914 
L 221.550545 87.175066 
L 222.199855 87.004674 
L 224.147782 86.970686 
L 224.472436 85.862815 
L 224.797091 85.660478 
L 226.095709 85.477751 
L 227.394327 85.451634 
L 227.718982 84.152027 
L 228.043636 83.732709 
L 228.692945 83.433256 
L 229.666909 83.335894 
L 230.965527 83.325127 
L 231.290182 81.722455 
L 231.939491 81.364839 
L 233.238109 81.285041 
L 234.212073 81.279924 
L 234.536727 80.851941 
L 234.861382 80.074514 
L 236.484655 79.83773 
L 237.783273 79.820396 
L 238.107927 77.794163 
L 238.757236 77.201629 
L 239.406545 77.044462 
L 241.029818 77.01077 
L 241.679127 74.818076 
L 242.003782 74.511586 
L 242.653091 74.335678 
L 244.601018 74.303412 
L 244.925673 73.406536 
L 245.250327 73.071529 
L 247.198255 72.963373 
L 247.847564 72.96267 
L 248.172218 72.767445 
L 248.496873 71.98336 
L 250.4448 71.840694 
L 251.418764 71.835794 
L 251.743418 71.051614 
L 252.068073 70.642534 
L 253.691345 70.503523 
L 254.665309 70.494443 
L 254.989964 69.48382 
L 255.314618 67.064545 
L 255.639273 66.58524 
L 256.288582 66.168123 
L 257.5872 66.084448 
L 258.236509 66.083196 
L 258.561164 62.96366 
L 258.885818 62.373216 
L 259.210473 62.055871 
L 259.859782 61.897088 
L 261.807709 61.765371 
L 262.132364 60.899326 
L 264.080291 60.756664 
L 265.054255 60.753554 
L 265.703564 59.810255 
L 267.326836 59.673887 
L 268.625455 59.6612 
L 268.950109 58.862239 
L 269.924073 58.620773 
L 271.872 58.610725 
L 272.196655 57.974174 
L 272.845964 57.647998 
L 273.819927 57.535764 
L 275.4432 57.529901 
L 275.767855 57.091447 
L 276.417164 56.741137 
L 277.715782 56.65544 
L 278.689745 56.651923 
L 279.988364 55.863595 
L 281.936291 55.814106 
L 285.507491 55.80441 
L 285.832145 55.424774 
L 286.481455 55.145538 
L 287.455418 55.049236 
L 289.078691 55.032818 
L 289.403345 54.583724 
L 290.377309 54.332396 
L 295.571782 54.271374 
L 309.531927 54.178868 
L 310.830545 54.045744 
L 314.077091 53.999045 
L 324.790691 53.861448 
L 335.504291 53.760728 
L 367.645091 53.623827 
L 373.813527 53.597188 
L 398.487273 53.568 
L 398.487273 53.568 
" style="fill:none;stroke:#1f77b4;stroke-linecap:square;stroke-width:1.5;"/>
   </g>
   <g id="line2d_26">
    <path clip-path="url(#pfc99328310)" d="M 74.157707 295.488 
L 84.557052 295.399311 
L 85.53199 295.350779 
L 129.079246 294.940331 
L 129.404226 291.386049 
L 129.729206 290.874234 
L 131.679083 290.772988 
L 132.004062 290.52923 
L 132.329042 290.52652 
L 132.979001 286.768071 
L 135.578837 285.877817 
L 135.903816 285.873395 
L 136.228796 283.670303 
L 136.878755 283.429974 
L 138.503653 283.168266 
L 139.153612 283.139095 
L 139.803571 281.876863 
L 142.728386 281.626332 
L 143.053366 280.564814 
L 143.703325 280.3871 
L 145.978182 280.172882 
L 146.628141 279.006225 
L 149.552957 278.832475 
L 149.877936 278.080881 
L 150.202916 277.865576 
L 152.477772 277.724747 
L 152.802752 277.724237 
L 153.127731 277.386362 
L 153.452711 276.803646 
L 156.377527 276.631208 
L 156.702506 275.900551 
L 157.027486 275.655327 
L 159.302342 275.506952 
L 159.627322 275.506691 
L 159.952301 275.111993 
L 160.277281 274.297832 
L 164.502015 274.164226 
L 186.600622 274.043659 
L 187.250581 273.907998 
L 187.575561 273.789474 
L 187.90054 272.98031 
L 188.22552 270.589761 
L 188.550499 267.073824 
L 188.875479 266.637619 
L 191.150336 266.22914 
L 191.800295 261.314632 
L 192.125274 259.684894 
L 194.400131 259.245101 
L 194.72511 257.740676 
L 195.375069 252.630785 
L 195.700049 252.398723 
L 197.974906 251.933832 
L 198.624865 247.776718 
L 198.949844 246.792169 
L 200.249762 246.545333 
L 201.224701 246.437797 
L 201.54968 246.20159 
L 201.87466 245.304919 
L 202.19964 243.655758 
L 202.524619 243.106121 
L 204.799476 242.900125 
L 205.774414 239.383091 
L 208.049271 239.138729 
L 208.37425 238.453048 
L 208.69923 237.354365 
L 209.02421 235.828022 
L 209.349189 235.324493 
L 211.299066 235.096792 
L 211.624046 235.081596 
L 212.274005 231.997961 
L 212.598984 231.361707 
L 213.898902 231.17992 
L 214.873841 231.104918 
L 215.19882 230.923945 
L 215.5238 230.388766 
L 215.84878 228.400342 
L 216.173759 228.164633 
L 218.448616 227.904043 
L 219.098575 224.638819 
L 219.423554 223.866959 
L 220.398493 223.671078 
L 221.698411 223.511687 
L 222.023391 222.345568 
L 222.67335 219.446261 
L 222.998329 218.922916 
L 223.973268 218.751418 
L 224.948206 218.619637 
L 225.273186 218.598707 
L 225.923145 214.479494 
L 226.248124 213.78051 
L 226.898083 213.528075 
L 228.522981 213.265063 
L 229.49792 206.404389 
L 229.822899 205.386219 
L 230.472858 205.159668 
L 231.772776 204.987601 
L 232.097756 204.967245 
L 232.747715 201.743457 
L 233.072694 201.315392 
L 233.722653 201.101738 
L 235.672531 200.950676 
L 235.99751 200.409945 
L 236.32249 199.313921 
L 236.647469 198.917484 
L 238.922326 198.740913 
L 239.897265 193.012113 
L 241.197183 192.734126 
L 242.497101 192.644935 
L 243.14706 192.360745 
L 243.472039 192.000482 
L 245.746896 191.850917 
L 246.071876 189.81897 
L 246.396855 188.999332 
L 246.721835 187.550528 
L 247.371794 187.315574 
L 249.321671 186.928368 
L 249.64665 182.41546 
L 250.296609 177.771364 
L 252.571466 177.303814 
L 253.546405 171.924632 
L 254.196364 171.624653 
L 255.171302 171.526896 
L 256.146241 171.490513 
L 256.47122 171.217343 
L 256.7962 170.447834 
L 257.12118 170.114376 
L 259.396036 170.014055 
L 259.721016 169.426858 
L 260.045995 168.463381 
L 260.370975 168.076202 
L 261.670893 167.944303 
L 262.970811 167.878982 
L 263.29579 166.067315 
L 263.62077 165.529047 
L 263.94575 165.23339 
L 266.220606 165.067696 
L 266.545586 164.936737 
L 267.520524 164.293205 
L 269.795381 164.215358 
L 270.44534 163.222641 
L 270.77032 162.955955 
L 273.045176 162.860747 
L 274.345094 161.854422 
L 277.26991 161.813472 
L 296.443702 161.727837 
L 296.768682 161.535991 
L 298.0686 161.465248 
L 298.393579 160.925533 
L 298.718559 159.238176 
L 299.043538 155.033975 
L 299.368518 154.335568 
L 300.018477 154.264794 
L 300.668436 154.171637 
L 301.643374 154.146693 
L 302.293333 149.251762 
L 302.618313 147.632259 
L 304.89317 147.438934 
L 305.218149 146.011253 
L 305.868108 141.161343 
L 306.193088 140.628575 
L 307.817985 140.396315 
L 308.467944 140.381557 
L 309.117903 136.273814 
L 309.442883 135.347007 
L 310.092842 135.226535 
L 310.742801 135.126119 
L 311.71774 135.099535 
L 312.042719 134.883487 
L 312.367699 134.159895 
L 312.692678 132.370426 
L 313.017658 131.789556 
L 315.292514 131.65755 
L 316.267453 128.191024 
L 318.54231 128.03682 
L 318.867289 127.38516 
L 319.192269 126.278424 
L 319.517248 124.773331 
L 319.842228 124.247556 
L 322.117084 124.137645 
L 322.767043 121.097699 
L 323.092023 120.558087 
L 323.417003 120.411438 
L 325.36688 120.31551 
L 325.691859 120.188467 
L 326.016839 119.660978 
L 326.341818 117.74251 
L 326.666798 117.39704 
L 327.316757 117.35797 
L 327.966716 117.248479 
L 328.941654 117.223132 
L 329.266634 115.417767 
L 329.916593 113.222529 
L 331.86647 113.031579 
L 332.19145 113.02193 
L 332.516429 111.887117 
L 333.166388 109.016748 
L 333.491368 108.458838 
L 334.141327 108.39136 
L 334.791286 108.312976 
L 335.766224 108.28732 
L 336.416184 105.095411 
L 336.741163 103.505063 
L 337.066143 103.363396 
L 337.716102 103.227068 
L 339.01602 103.152588 
L 339.340999 102.391641 
L 339.665979 97.924069 
L 340.315938 95.305128 
L 341.940835 95.189986 
L 342.590794 95.174272 
L 342.915774 93.563844 
L 343.565733 91.556581 
L 344.215692 91.396509 
L 346.165569 91.330658 
L 346.490549 90.778019 
L 346.815528 89.803518 
L 347.140508 89.279181 
L 348.765405 89.161708 
L 349.415365 89.14488 
L 350.390303 83.452134 
L 351.040262 83.366124 
L 353.315119 83.132679 
L 353.640098 83.006233 
L 353.965078 82.637775 
L 355.264996 82.528702 
L 356.239935 82.502644 
L 356.564914 81.464726 
L 357.214873 78.248311 
L 357.539853 78.093013 
L 358.189812 77.975615 
L 358.839771 77.900277 
L 359.814709 77.873579 
L 360.139689 73.269611 
L 360.789648 68.622639 
L 362.089566 68.509816 
L 363.064505 68.482889 
L 363.389484 67.519759 
L 364.039443 63.251857 
L 364.364423 62.941632 
L 366.639279 62.880969 
L 366.964259 62.640713 
L 367.289238 61.946794 
L 367.614218 61.535557 
L 369.889075 61.454612 
L 370.214054 60.953086 
L 370.539034 59.929135 
L 370.864013 59.552056 
L 371.838952 59.449463 
L 373.463849 59.401491 
L 374.113808 57.133559 
L 374.438788 56.782996 
L 376.713645 56.690862 
L 377.038624 56.573231 
L 378.013563 55.945005 
L 380.288419 55.879964 
L 380.938378 54.925045 
L 381.263358 54.645928 
L 383.538215 54.601449 
L 384.838133 53.595433 
L 398.487273 53.568036 
L 398.487273 53.568036 
" style="fill:none;stroke:#ff7f0e;stroke-linecap:square;stroke-width:1.5;"/>
   </g>
   <g id="patch_3">
    <path d="M 57.6 307.584 
L 57.6 41.472 
" style="fill:none;stroke:#000000;stroke-linecap:square;stroke-linejoin:miter;stroke-width:0.8;"/>
   </g>
   <g id="patch_4">
    <path d="M 414.72 307.584 
L 414.72 41.472 
" style="fill:none;stroke:#000000;stroke-linecap:square;stroke-linejoin:miter;stroke-width:0.8;"/>
   </g>
   <g id="patch_5">
    <path d="M 57.6 307.584 
L 414.72 307.584 
" style="fill:none;stroke:#000000;stroke-linecap:square;stroke-linejoin:miter;stroke-width:0.8;"/>
   </g>
   <g id="patch_6">
    <path d="M 57.6 41.472 
L 414.72 41.472 
" style="fill:none;stroke:#000000;stroke-linecap:square;stroke-linejoin:miter;stroke-width:0.8;"/>
   </g>
   <g id="text_15">
    <!-- crackstation naive vs sophisticated approach -->
    <defs>
     <path d="M 9.078125 75.984375 
L 18.109375 75.984375 
L 18.109375 31.109375 
L 44.921875 54.6875 
L 56.390625 54.6875 
L 27.390625 29.109375 
L 57.625 0 
L 45.90625 0 
L 18.109375 26.703125 
L 18.109375 0 
L 9.078125 0 
z
" id="DejaVuSans-107"/>
     <path d="M 2.984375 54.6875 
L 12.5 54.6875 
L 29.59375 8.796875 
L 46.6875 54.6875 
L 56.203125 54.6875 
L 35.6875 0 
L 23.484375 0 
z
" id="DejaVuSans-118"/>
     <path d="M 54.890625 33.015625 
L 54.890625 0 
L 45.90625 0 
L 45.90625 32.71875 
Q 45.90625 40.484375 42.875 44.328125 
Q 39.84375 48.1875 33.796875 48.1875 
Q 26.515625 48.1875 22.3125 43.546875 
Q 18.109375 38.921875 18.109375 30.90625 
L 18.109375 0 
L 9.078125 0 
L 9.078125 75.984375 
L 18.109375 75.984375 
L 18.109375 46.1875 
Q 21.34375 51.125 25.703125 53.5625 
Q 30.078125 56 35.796875 56 
Q 45.21875 56 50.046875 50.171875 
Q 54.890625 44.34375 54.890625 33.015625 
z
" id="DejaVuSans-104"/>
    </defs>
    <g transform="translate(100.344375 35.472)scale(0.12 -0.12)">
     <use xlink:href="#DejaVuSans-99"/>
     <use x="54.980469" xlink:href="#DejaVuSans-114"/>
     <use x="96.09375" xlink:href="#DejaVuSans-97"/>
     <use x="157.373047" xlink:href="#DejaVuSans-99"/>
     <use x="212.353516" xlink:href="#DejaVuSans-107"/>
     <use x="270.263672" xlink:href="#DejaVuSans-115"/>
     <use x="322.363281" xlink:href="#DejaVuSans-116"/>
     <use x="361.572266" xlink:href="#DejaVuSans-97"/>
     <use x="422.851562" xlink:href="#DejaVuSans-116"/>
     <use x="462.060547" xlink:href="#DejaVuSans-105"/>
     <use x="489.84375" xlink:href="#DejaVuSans-111"/>
     <use x="551.025391" xlink:href="#DejaVuSans-110"/>
     <use x="614.404297" xlink:href="#DejaVuSans-32"/>
     <use x="646.191406" xlink:href="#DejaVuSans-110"/>
     <use x="709.570312" xlink:href="#DejaVuSans-97"/>
     <use x="770.849609" xlink:href="#DejaVuSans-105"/>
     <use x="798.632812" xlink:href="#DejaVuSans-118"/>
     <use x="857.8125" xlink:href="#DejaVuSans-101"/>
     <use x="919.335938" xlink:href="#DejaVuSans-32"/>
     <use x="951.123047" xlink:href="#DejaVuSans-118"/>
     <use x="1010.302734" xlink:href="#DejaVuSans-115"/>
     <use x="1062.402344" xlink:href="#DejaVuSans-32"/>
     <use x="1094.189453" xlink:href="#DejaVuSans-115"/>
     <use x="1146.289062" xlink:href="#DejaVuSans-111"/>
     <use x="1207.470703" xlink:href="#DejaVuSans-112"/>
     <use x="1270.947266" xlink:href="#DejaVuSans-104"/>
     <use x="1334.326172" xlink:href="#DejaVuSans-105"/>
     <use x="1362.109375" xlink:href="#DejaVuSans-115"/>
     <use x="1414.208984" xlink:href="#DejaVuSans-116"/>
     <use x="1453.417969" xlink:href="#DejaVuSans-105"/>
     <use x="1481.201172" xlink:href="#DejaVuSans-99"/>
     <use x="1536.181641" xlink:href="#DejaVuSans-97"/>
     <use x="1597.460938" xlink:href="#DejaVuSans-116"/>
     <use x="1636.669922" xlink:href="#DejaVuSans-101"/>
     <use x="1698.193359" xlink:href="#DejaVuSans-100"/>
     <use x="1761.669922" xlink:href="#DejaVuSans-32"/>
     <use x="1793.457031" xlink:href="#DejaVuSans-97"/>
     <use x="1854.736328" xlink:href="#DejaVuSans-112"/>
     <use x="1918.212891" xlink:href="#DejaVuSans-112"/>
     <use x="1981.689453" xlink:href="#DejaVuSans-114"/>
     <use x="2022.771484" xlink:href="#DejaVuSans-111"/>
     <use x="2083.953125" xlink:href="#DejaVuSans-97"/>
     <use x="2145.232422" xlink:href="#DejaVuSans-99"/>
     <use x="2200.212891" xlink:href="#DejaVuSans-104"/>
    </g>
   </g>
   <g id="legend_1">
    <g id="patch_7">
     <path d="M 64.6 78.82825 
L 214.68125 78.82825 
Q 216.68125 78.82825 216.68125 76.82825 
L 216.68125 48.472 
Q 216.68125 46.472 214.68125 46.472 
L 64.6 46.472 
Q 62.6 46.472 62.6 48.472 
L 62.6 76.82825 
Q 62.6 78.82825 64.6 78.82825 
z
" style="fill:#ffffff;opacity:0.8;stroke:#cccccc;stroke-linejoin:miter;"/>
    </g>
    <g id="line2d_27">
     <path d="M 66.6 54.570437 
L 86.6 54.570437 
" style="fill:none;stroke:#1f77b4;stroke-linecap:square;stroke-width:1.5;"/>
    </g>
    <g id="line2d_28"/>
    <g id="text_16">
     <!-- Sophisticated approach -->
     <defs>
      <path d="M 53.515625 70.515625 
L 53.515625 60.890625 
Q 47.90625 63.578125 42.921875 64.890625 
Q 37.9375 66.21875 33.296875 66.21875 
Q 25.25 66.21875 20.875 63.09375 
Q 16.5 59.96875 16.5 54.203125 
Q 16.5 49.359375 19.40625 46.890625 
Q 22.3125 44.4375 30.421875 42.921875 
L 36.375 41.703125 
Q 47.40625 39.59375 52.65625 34.296875 
Q 57.90625 29 57.90625 20.125 
Q 57.90625 9.515625 50.796875 4.046875 
Q 43.703125 -1.421875 29.984375 -1.421875 
Q 24.8125 -1.421875 18.96875 -0.25 
Q 13.140625 0.921875 6.890625 3.21875 
L 6.890625 13.375 
Q 12.890625 10.015625 18.65625 8.296875 
Q 24.421875 6.59375 29.984375 6.59375 
Q 38.421875 6.59375 43.015625 9.90625 
Q 47.609375 13.234375 47.609375 19.390625 
Q 47.609375 24.75 44.3125 27.78125 
Q 41.015625 30.8125 33.5 32.328125 
L 27.484375 33.5 
Q 16.453125 35.6875 11.515625 40.375 
Q 6.59375 45.0625 6.59375 53.421875 
Q 6.59375 63.09375 13.40625 68.65625 
Q 20.21875 74.21875 32.171875 74.21875 
Q 37.3125 74.21875 42.625 73.28125 
Q 47.953125 72.359375 53.515625 70.515625 
z
" id="DejaVuSans-83"/>
     </defs>
     <g transform="translate(94.6 58.070437)scale(0.1 -0.1)">
      <use xlink:href="#DejaVuSans-83"/>
      <use x="63.476562" xlink:href="#DejaVuSans-111"/>
      <use x="124.658203" xlink:href="#DejaVuSans-112"/>
      <use x="188.134766" xlink:href="#DejaVuSans-104"/>
      <use x="251.513672" xlink:href="#DejaVuSans-105"/>
      <use x="279.296875" xlink:href="#DejaVuSans-115"/>
      <use x="331.396484" xlink:href="#DejaVuSans-116"/>
      <use x="370.605469" xlink:href="#DejaVuSans-105"/>
      <use x="398.388672" xlink:href="#DejaVuSans-99"/>
      <use x="453.369141" xlink:href="#DejaVuSans-97"/>
      <use x="514.648438" xlink:href="#DejaVuSans-116"/>
      <use x="553.857422" xlink:href="#DejaVuSans-101"/>
      <use x="615.380859" xlink:href="#DejaVuSans-100"/>
      <use x="678.857422" xlink:href="#DejaVuSans-32"/>
      <use x="710.644531" xlink:href="#DejaVuSans-97"/>
      <use x="771.923828" xlink:href="#DejaVuSans-112"/>
      <use x="835.400391" xlink:href="#DejaVuSans-112"/>
      <use x="898.876953" xlink:href="#DejaVuSans-114"/>
      <use x="939.958984" xlink:href="#DejaVuSans-111"/>
      <use x="1001.140625" xlink:href="#DejaVuSans-97"/>
      <use x="1062.419922" xlink:href="#DejaVuSans-99"/>
      <use x="1117.400391" xlink:href="#DejaVuSans-104"/>
     </g>
    </g>
    <g id="line2d_29">
     <path d="M 66.6 69.248562 
L 86.6 69.248562 
" style="fill:none;stroke:#ff7f0e;stroke-linecap:square;stroke-width:1.5;"/>
    </g>
    <g id="line2d_30"/>
    <g id="text_17">
     <!-- Naive approach -->
     <defs>
      <path d="M 9.8125 72.90625 
L 23.09375 72.90625 
L 55.421875 11.921875 
L 55.421875 72.90625 
L 64.984375 72.90625 
L 64.984375 0 
L 51.703125 0 
L 19.390625 60.984375 
L 19.390625 0 
L 9.8125 0 
z
" id="DejaVuSans-78"/>
     </defs>
     <g transform="translate(94.6 72.748562)scale(0.1 -0.1)">
      <use xlink:href="#DejaVuSans-78"/>
      <use x="74.804688" xlink:href="#DejaVuSans-97"/>
      <use x="136.083984" xlink:href="#DejaVuSans-105"/>
      <use x="163.867188" xlink:href="#DejaVuSans-118"/>
      <use x="223.046875" xlink:href="#DejaVuSans-101"/>
      <use x="284.570312" xlink:href="#DejaVuSans-32"/>
      <use x="316.357422" xlink:href="#DejaVuSans-97"/>
      <use x="377.636719" xlink:href="#DejaVuSans-112"/>
      <use x="441.113281" xlink:href="#DejaVuSans-112"/>
      <use x="504.589844" xlink:href="#DejaVuSans-114"/>
      <use x="545.671875" xlink:href="#DejaVuSans-111"/>
      <use x="606.853516" xlink:href="#DejaVuSans-97"/>
      <use x="668.132812" xlink:href="#DejaVuSans-99"/>
      <use x="723.113281" xlink:href="#DejaVuSans-104"/>
     </g>
    </g>
   </g>
  </g>
 </g>
 <defs>
  <clipPath id="pfc99328310">
   <rect height="266.112" width="357.12" x="57.6" y="41.472"/>
  </clipPath>
 </defs>
</svg>
