<?xml version="1.0" encoding="utf-8" standalone="no"?>
<!DOCTYPE svg PUBLIC "-//W3C//DTD SVG 1.1//EN"
  "http://www.w3.org/Graphics/SVG/1.1/DTD/svg11.dtd">
<!-- Created with matplotlib (https://matplotlib.org/) -->
<svg height="345.6pt" version="1.1" viewBox="0 0 460.8 345.6" width="460.8pt" xmlns="http://www.w3.org/2000/svg" xmlns:xlink="http://www.w3.org/1999/xlink">
 <defs>
  <style type="text/css">
*{stroke-linecap:butt;stroke-linejoin:round;}
  </style>
 </defs>
 <g id="figure_1">
  <g id="patch_1">
   <path d="M 0 345.6 
L 460.8 345.6 
L 460.8 0 
L 0 0 
z
" style="fill:#ffffff;"/>
  </g>
  <g id="axes_1">
   <g id="patch_2">
    <path d="M 57.6 307.584 
L 414.72 307.584 
L 414.72 41.472 
L 57.6 41.472 
z
" style="fill:#ffffff;"/>
   </g>
   <g id="matplotlib.axis_1">
    <g id="xtick_1">
     <g id="line2d_1">
      <path clip-path="url(#pcfa2bfde01)" d="M 73.832727 307.584 
L 73.832727 41.472 
" style="fill:none;stroke:#b0b0b0;stroke-linecap:square;stroke-width:0.8;"/>
     </g>
     <g id="line2d_2">
      <defs>
       <path d="M 0 0 
L 0 3.5 
" id="m9ba1bc9bb3" style="stroke:#000000;stroke-width:0.8;"/>
      </defs>
      <g>
       <use style="stroke:#000000;stroke-width:0.8;" x="73.832727" xlink:href="#m9ba1bc9bb3" y="307.584"/>
      </g>
     </g>
     <g id="text_1">
      <!-- 0.0 -->
      <defs>
       <path d="M 31.78125 66.40625 
Q 24.171875 66.40625 20.328125 58.90625 
Q 16.5 51.421875 16.5 36.375 
Q 16.5 21.390625 20.328125 13.890625 
Q 24.171875 6.390625 31.78125 6.390625 
Q 39.453125 6.390625 43.28125 13.890625 
Q 47.125 21.390625 47.125 36.375 
Q 47.125 51.421875 43.28125 58.90625 
Q 39.453125 66.40625 31.78125 66.40625 
z
M 31.78125 74.21875 
Q 44.046875 74.21875 50.515625 64.515625 
Q 56.984375 54.828125 56.984375 36.375 
Q 56.984375 17.96875 50.515625 8.265625 
Q 44.046875 -1.421875 31.78125 -1.421875 
Q 19.53125 -1.421875 13.0625 8.265625 
Q 6.59375 17.96875 6.59375 36.375 
Q 6.59375 54.828125 13.0625 64.515625 
Q 19.53125 74.21875 31.78125 74.21875 
z
" id="DejaVuSans-48"/>
       <path d="M 10.6875 12.40625 
L 21 12.40625 
L 21 0 
L 10.6875 0 
z
" id="DejaVuSans-46"/>
      </defs>
      <g transform="translate(65.881165 322.182437)scale(0.1 -0.1)">
       <use xlink:href="#DejaVuSans-48"/>
       <use x="63.623047" xlink:href="#DejaVuSans-46"/>
       <use x="95.410156" xlink:href="#DejaVuSans-48"/>
      </g>
     </g>
    </g>
    <g id="xtick_2">
     <g id="line2d_3">
      <path clip-path="url(#pcfa2bfde01)" d="M 138.763636 307.584 
L 138.763636 41.472 
" style="fill:none;stroke:#b0b0b0;stroke-linecap:square;stroke-width:0.8;"/>
     </g>
     <g id="line2d_4">
      <g>
       <use style="stroke:#000000;stroke-width:0.8;" x="138.763636" xlink:href="#m9ba1bc9bb3" y="307.584"/>
      </g>
     </g>
     <g id="text_2">
      <!-- 0.2 -->
      <defs>
       <path d="M 19.1875 8.296875 
L 53.609375 8.296875 
L 53.609375 0 
L 7.328125 0 
L 7.328125 8.296875 
Q 12.9375 14.109375 22.625 23.890625 
Q 32.328125 33.6875 34.8125 36.53125 
Q 39.546875 41.84375 41.421875 45.53125 
Q 43.3125 49.21875 43.3125 52.78125 
Q 43.3125 58.59375 39.234375 62.25 
Q 35.15625 65.921875 28.609375 65.921875 
Q 23.96875 65.921875 18.8125 64.3125 
Q 13.671875 62.703125 7.8125 59.421875 
L 7.8125 69.390625 
Q 13.765625 71.78125 18.9375 73 
Q 24.125 74.21875 28.421875 74.21875 
Q 39.75 74.21875 46.484375 68.546875 
Q 53.21875 62.890625 53.21875 53.421875 
Q 53.21875 48.921875 51.53125 44.890625 
Q 49.859375 40.875 45.40625 35.40625 
Q 44.1875 33.984375 37.640625 27.21875 
Q 31.109375 20.453125 19.1875 8.296875 
z
" id="DejaVuSans-50"/>
      </defs>
      <g transform="translate(130.812074 322.182437)scale(0.1 -0.1)">
       <use xlink:href="#DejaVuSans-48"/>
       <use x="63.623047" xlink:href="#DejaVuSans-46"/>
       <use x="95.410156" xlink:href="#DejaVuSans-50"/>
      </g>
     </g>
    </g>
    <g id="xtick_3">
     <g id="line2d_5">
      <path clip-path="url(#pcfa2bfde01)" d="M 203.694545 307.584 
L 203.694545 41.472 
" style="fill:none;stroke:#b0b0b0;stroke-linecap:square;stroke-width:0.8;"/>
     </g>
     <g id="line2d_6">
      <g>
       <use style="stroke:#000000;stroke-width:0.8;" x="203.694545" xlink:href="#m9ba1bc9bb3" y="307.584"/>
      </g>
     </g>
     <g id="text_3">
      <!-- 0.4 -->
      <defs>
       <path d="M 37.796875 64.3125 
L 12.890625 25.390625 
L 37.796875 25.390625 
z
M 35.203125 72.90625 
L 47.609375 72.90625 
L 47.609375 25.390625 
L 58.015625 25.390625 
L 58.015625 17.1875 
L 47.609375 17.1875 
L 47.609375 0 
L 37.796875 0 
L 37.796875 17.1875 
L 4.890625 17.1875 
L 4.890625 26.703125 
z
" id="DejaVuSans-52"/>
      </defs>
      <g transform="translate(195.742983 322.182437)scale(0.1 -0.1)">
       <use xlink:href="#DejaVuSans-48"/>
       <use x="63.623047" xlink:href="#DejaVuSans-46"/>
       <use x="95.410156" xlink:href="#DejaVuSans-52"/>
      </g>
     </g>
    </g>
    <g id="xtick_4">
     <g id="line2d_7">
      <path clip-path="url(#pcfa2bfde01)" d="M 268.625455 307.584 
L 268.625455 41.472 
" style="fill:none;stroke:#b0b0b0;stroke-linecap:square;stroke-width:0.8;"/>
     </g>
     <g id="line2d_8">
      <g>
       <use style="stroke:#000000;stroke-width:0.8;" x="268.625455" xlink:href="#m9ba1bc9bb3" y="307.584"/>
      </g>
     </g>
     <g id="text_4">
      <!-- 0.6 -->
      <defs>
       <path d="M 33.015625 40.375 
Q 26.375 40.375 22.484375 35.828125 
Q 18.609375 31.296875 18.609375 23.390625 
Q 18.609375 15.53125 22.484375 10.953125 
Q 26.375 6.390625 33.015625 6.390625 
Q 39.65625 6.390625 43.53125 10.953125 
Q 47.40625 15.53125 47.40625 23.390625 
Q 47.40625 31.296875 43.53125 35.828125 
Q 39.65625 40.375 33.015625 40.375 
z
M 52.59375 71.296875 
L 52.59375 62.3125 
Q 48.875 64.0625 45.09375 64.984375 
Q 41.3125 65.921875 37.59375 65.921875 
Q 27.828125 65.921875 22.671875 59.328125 
Q 17.53125 52.734375 16.796875 39.40625 
Q 19.671875 43.65625 24.015625 45.921875 
Q 28.375 48.1875 33.59375 48.1875 
Q 44.578125 48.1875 50.953125 41.515625 
Q 57.328125 34.859375 57.328125 23.390625 
Q 57.328125 12.15625 50.6875 5.359375 
Q 44.046875 -1.421875 33.015625 -1.421875 
Q 20.359375 -1.421875 13.671875 8.265625 
Q 6.984375 17.96875 6.984375 36.375 
Q 6.984375 53.65625 15.1875 63.9375 
Q 23.390625 74.21875 37.203125 74.21875 
Q 40.921875 74.21875 44.703125 73.484375 
Q 48.484375 72.75 52.59375 71.296875 
z
" id="DejaVuSans-54"/>
      </defs>
      <g transform="translate(260.673892 322.182437)scale(0.1 -0.1)">
       <use xlink:href="#DejaVuSans-48"/>
       <use x="63.623047" xlink:href="#DejaVuSans-46"/>
       <use x="95.410156" xlink:href="#DejaVuSans-54"/>
      </g>
     </g>
    </g>
    <g id="xtick_5">
     <g id="line2d_9">
      <path clip-path="url(#pcfa2bfde01)" d="M 333.556364 307.584 
L 333.556364 41.472 
" style="fill:none;stroke:#b0b0b0;stroke-linecap:square;stroke-width:0.8;"/>
     </g>
     <g id="line2d_10">
      <g>
       <use style="stroke:#000000;stroke-width:0.8;" x="333.556364" xlink:href="#m9ba1bc9bb3" y="307.584"/>
      </g>
     </g>
     <g id="text_5">
      <!-- 0.8 -->
      <defs>
       <path d="M 31.78125 34.625 
Q 24.75 34.625 20.71875 30.859375 
Q 16.703125 27.09375 16.703125 20.515625 
Q 16.703125 13.921875 20.71875 10.15625 
Q 24.75 6.390625 31.78125 6.390625 
Q 38.8125 6.390625 42.859375 10.171875 
Q 46.921875 13.96875 46.921875 20.515625 
Q 46.921875 27.09375 42.890625 30.859375 
Q 38.875 34.625 31.78125 34.625 
z
M 21.921875 38.8125 
Q 15.578125 40.375 12.03125 44.71875 
Q 8.5 49.078125 8.5 55.328125 
Q 8.5 64.0625 14.71875 69.140625 
Q 20.953125 74.21875 31.78125 74.21875 
Q 42.671875 74.21875 48.875 69.140625 
Q 55.078125 64.0625 55.078125 55.328125 
Q 55.078125 49.078125 51.53125 44.71875 
Q 48 40.375 41.703125 38.8125 
Q 48.828125 37.15625 52.796875 32.3125 
Q 56.78125 27.484375 56.78125 20.515625 
Q 56.78125 9.90625 50.3125 4.234375 
Q 43.84375 -1.421875 31.78125 -1.421875 
Q 19.734375 -1.421875 13.25 4.234375 
Q 6.78125 9.90625 6.78125 20.515625 
Q 6.78125 27.484375 10.78125 32.3125 
Q 14.796875 37.15625 21.921875 38.8125 
z
M 18.3125 54.390625 
Q 18.3125 48.734375 21.84375 45.5625 
Q 25.390625 42.390625 31.78125 42.390625 
Q 38.140625 42.390625 41.71875 45.5625 
Q 45.3125 48.734375 45.3125 54.390625 
Q 45.3125 60.0625 41.71875 63.234375 
Q 38.140625 66.40625 31.78125 66.40625 
Q 25.390625 66.40625 21.84375 63.234375 
Q 18.3125 60.0625 18.3125 54.390625 
z
" id="DejaVuSans-56"/>
      </defs>
      <g transform="translate(325.604801 322.182437)scale(0.1 -0.1)">
       <use xlink:href="#DejaVuSans-48"/>
       <use x="63.623047" xlink:href="#DejaVuSans-46"/>
       <use x="95.410156" xlink:href="#DejaVuSans-56"/>
      </g>
     </g>
    </g>
    <g id="xtick_6">
     <g id="line2d_11">
      <path clip-path="url(#pcfa2bfde01)" d="M 398.487273 307.584 
L 398.487273 41.472 
" style="fill:none;stroke:#b0b0b0;stroke-linecap:square;stroke-width:0.8;"/>
     </g>
     <g id="line2d_12">
      <g>
       <use style="stroke:#000000;stroke-width:0.8;" x="398.487273" xlink:href="#m9ba1bc9bb3" y="307.584"/>
      </g>
     </g>
     <g id="text_6">
      <!-- 1.0 -->
      <defs>
       <path d="M 12.40625 8.296875 
L 28.515625 8.296875 
L 28.515625 63.921875 
L 10.984375 60.40625 
L 10.984375 69.390625 
L 28.421875 72.90625 
L 38.28125 72.90625 
L 38.28125 8.296875 
L 54.390625 8.296875 
L 54.390625 0 
L 12.40625 0 
z
" id="DejaVuSans-49"/>
      </defs>
      <g transform="translate(390.53571 322.182437)scale(0.1 -0.1)">
       <use xlink:href="#DejaVuSans-49"/>
       <use x="63.623047" xlink:href="#DejaVuSans-46"/>
       <use x="95.410156" xlink:href="#DejaVuSans-48"/>
      </g>
     </g>
    </g>
    <g id="text_7">
     <!-- % of total possible combinations tried -->
     <defs>
      <path d="M 72.703125 32.078125 
Q 68.453125 32.078125 66.03125 28.46875 
Q 63.625 24.859375 63.625 18.40625 
Q 63.625 12.0625 66.03125 8.421875 
Q 68.453125 4.78125 72.703125 4.78125 
Q 76.859375 4.78125 79.265625 8.421875 
Q 81.6875 12.0625 81.6875 18.40625 
Q 81.6875 24.8125 79.265625 28.4375 
Q 76.859375 32.078125 72.703125 32.078125 
z
M 72.703125 38.28125 
Q 80.421875 38.28125 84.953125 32.90625 
Q 89.5 27.546875 89.5 18.40625 
Q 89.5 9.28125 84.9375 3.921875 
Q 80.375 -1.421875 72.703125 -1.421875 
Q 64.890625 -1.421875 60.34375 3.921875 
Q 55.8125 9.28125 55.8125 18.40625 
Q 55.8125 27.59375 60.375 32.9375 
Q 64.9375 38.28125 72.703125 38.28125 
z
M 22.3125 68.015625 
Q 18.109375 68.015625 15.6875 64.375 
Q 13.28125 60.75 13.28125 54.390625 
Q 13.28125 47.953125 15.671875 44.328125 
Q 18.0625 40.71875 22.3125 40.71875 
Q 26.5625 40.71875 28.96875 44.328125 
Q 31.390625 47.953125 31.390625 54.390625 
Q 31.390625 60.6875 28.953125 64.34375 
Q 26.515625 68.015625 22.3125 68.015625 
z
M 66.40625 74.21875 
L 74.21875 74.21875 
L 28.609375 -1.421875 
L 20.796875 -1.421875 
z
M 22.3125 74.21875 
Q 30.03125 74.21875 34.609375 68.875 
Q 39.203125 63.53125 39.203125 54.390625 
Q 39.203125 45.171875 34.640625 39.84375 
Q 30.078125 34.515625 22.3125 34.515625 
Q 14.546875 34.515625 10.03125 39.859375 
Q 5.515625 45.21875 5.515625 54.390625 
Q 5.515625 63.484375 10.046875 68.84375 
Q 14.59375 74.21875 22.3125 74.21875 
z
" id="DejaVuSans-37"/>
      <path id="DejaVuSans-32"/>
      <path d="M 30.609375 48.390625 
Q 23.390625 48.390625 19.1875 42.75 
Q 14.984375 37.109375 14.984375 27.296875 
Q 14.984375 17.484375 19.15625 11.84375 
Q 23.34375 6.203125 30.609375 6.203125 
Q 37.796875 6.203125 41.984375 11.859375 
Q 46.1875 17.53125 46.1875 27.296875 
Q 46.1875 37.015625 41.984375 42.703125 
Q 37.796875 48.390625 30.609375 48.390625 
z
M 30.609375 56 
Q 42.328125 56 49.015625 48.375 
Q 55.71875 40.765625 55.71875 27.296875 
Q 55.71875 13.875 49.015625 6.21875 
Q 42.328125 -1.421875 30.609375 -1.421875 
Q 18.84375 -1.421875 12.171875 6.21875 
Q 5.515625 13.875 5.515625 27.296875 
Q 5.515625 40.765625 12.171875 48.375 
Q 18.84375 56 30.609375 56 
z
" id="DejaVuSans-111"/>
      <path d="M 37.109375 75.984375 
L 37.109375 68.5 
L 28.515625 68.5 
Q 23.6875 68.5 21.796875 66.546875 
Q 19.921875 64.59375 19.921875 59.515625 
L 19.921875 54.6875 
L 34.71875 54.6875 
L 34.71875 47.703125 
L 19.921875 47.703125 
L 19.921875 0 
L 10.890625 0 
L 10.890625 47.703125 
L 2.296875 47.703125 
L 2.296875 54.6875 
L 10.890625 54.6875 
L 10.890625 58.5 
Q 10.890625 67.625 15.140625 71.796875 
Q 19.390625 75.984375 28.609375 75.984375 
z
" id="DejaVuSans-102"/>
      <path d="M 18.3125 70.21875 
L 18.3125 54.6875 
L 36.8125 54.6875 
L 36.8125 47.703125 
L 18.3125 47.703125 
L 18.3125 18.015625 
Q 18.3125 11.328125 20.140625 9.421875 
Q 21.96875 7.515625 27.59375 7.515625 
L 36.8125 7.515625 
L 36.8125 0 
L 27.59375 0 
Q 17.1875 0 13.234375 3.875 
Q 9.28125 7.765625 9.28125 18.015625 
L 9.28125 47.703125 
L 2.6875 47.703125 
L 2.6875 54.6875 
L 9.28125 54.6875 
L 9.28125 70.21875 
z
" id="DejaVuSans-116"/>
      <path d="M 34.28125 27.484375 
Q 23.390625 27.484375 19.1875 25 
Q 14.984375 22.515625 14.984375 16.5 
Q 14.984375 11.71875 18.140625 8.90625 
Q 21.296875 6.109375 26.703125 6.109375 
Q 34.1875 6.109375 38.703125 11.40625 
Q 43.21875 16.703125 43.21875 25.484375 
L 43.21875 27.484375 
z
M 52.203125 31.203125 
L 52.203125 0 
L 43.21875 0 
L 43.21875 8.296875 
Q 40.140625 3.328125 35.546875 0.953125 
Q 30.953125 -1.421875 24.3125 -1.421875 
Q 15.921875 -1.421875 10.953125 3.296875 
Q 6 8.015625 6 15.921875 
Q 6 25.140625 12.171875 29.828125 
Q 18.359375 34.515625 30.609375 34.515625 
L 43.21875 34.515625 
L 43.21875 35.40625 
Q 43.21875 41.609375 39.140625 45 
Q 35.0625 48.390625 27.6875 48.390625 
Q 23 48.390625 18.546875 47.265625 
Q 14.109375 46.140625 10.015625 43.890625 
L 10.015625 52.203125 
Q 14.9375 54.109375 19.578125 55.046875 
Q 24.21875 56 28.609375 56 
Q 40.484375 56 46.34375 49.84375 
Q 52.203125 43.703125 52.203125 31.203125 
z
" id="DejaVuSans-97"/>
      <path d="M 9.421875 75.984375 
L 18.40625 75.984375 
L 18.40625 0 
L 9.421875 0 
z
" id="DejaVuSans-108"/>
      <path d="M 18.109375 8.203125 
L 18.109375 -20.796875 
L 9.078125 -20.796875 
L 9.078125 54.6875 
L 18.109375 54.6875 
L 18.109375 46.390625 
Q 20.953125 51.265625 25.265625 53.625 
Q 29.59375 56 35.59375 56 
Q 45.5625 56 51.78125 48.09375 
Q 58.015625 40.1875 58.015625 27.296875 
Q 58.015625 14.40625 51.78125 6.484375 
Q 45.5625 -1.421875 35.59375 -1.421875 
Q 29.59375 -1.421875 25.265625 0.953125 
Q 20.953125 3.328125 18.109375 8.203125 
z
M 48.6875 27.296875 
Q 48.6875 37.203125 44.609375 42.84375 
Q 40.53125 48.484375 33.40625 48.484375 
Q 26.265625 48.484375 22.1875 42.84375 
Q 18.109375 37.203125 18.109375 27.296875 
Q 18.109375 17.390625 22.1875 11.75 
Q 26.265625 6.109375 33.40625 6.109375 
Q 40.53125 6.109375 44.609375 11.75 
Q 48.6875 17.390625 48.6875 27.296875 
z
" id="DejaVuSans-112"/>
      <path d="M 44.28125 53.078125 
L 44.28125 44.578125 
Q 40.484375 46.53125 36.375 47.5 
Q 32.28125 48.484375 27.875 48.484375 
Q 21.1875 48.484375 17.84375 46.4375 
Q 14.5 44.390625 14.5 40.28125 
Q 14.5 37.15625 16.890625 35.375 
Q 19.28125 33.59375 26.515625 31.984375 
L 29.59375 31.296875 
Q 39.15625 29.25 43.1875 25.515625 
Q 47.21875 21.78125 47.21875 15.09375 
Q 47.21875 7.46875 41.1875 3.015625 
Q 35.15625 -1.421875 24.609375 -1.421875 
Q 20.21875 -1.421875 15.453125 -0.5625 
Q 10.6875 0.296875 5.421875 2 
L 5.421875 11.28125 
Q 10.40625 8.6875 15.234375 7.390625 
Q 20.0625 6.109375 24.8125 6.109375 
Q 31.15625 6.109375 34.5625 8.28125 
Q 37.984375 10.453125 37.984375 14.40625 
Q 37.984375 18.0625 35.515625 20.015625 
Q 33.0625 21.96875 24.703125 23.78125 
L 21.578125 24.515625 
Q 13.234375 26.265625 9.515625 29.90625 
Q 5.8125 33.546875 5.8125 39.890625 
Q 5.8125 47.609375 11.28125 51.796875 
Q 16.75 56 26.8125 56 
Q 31.78125 56 36.171875 55.265625 
Q 40.578125 54.546875 44.28125 53.078125 
z
" id="DejaVuSans-115"/>
      <path d="M 9.421875 54.6875 
L 18.40625 54.6875 
L 18.40625 0 
L 9.421875 0 
z
M 9.421875 75.984375 
L 18.40625 75.984375 
L 18.40625 64.59375 
L 9.421875 64.59375 
z
" id="DejaVuSans-105"/>
      <path d="M 48.6875 27.296875 
Q 48.6875 37.203125 44.609375 42.84375 
Q 40.53125 48.484375 33.40625 48.484375 
Q 26.265625 48.484375 22.1875 42.84375 
Q 18.109375 37.203125 18.109375 27.296875 
Q 18.109375 17.390625 22.1875 11.75 
Q 26.265625 6.109375 33.40625 6.109375 
Q 40.53125 6.109375 44.609375 11.75 
Q 48.6875 17.390625 48.6875 27.296875 
z
M 18.109375 46.390625 
Q 20.953125 51.265625 25.265625 53.625 
Q 29.59375 56 35.59375 56 
Q 45.5625 56 51.78125 48.09375 
Q 58.015625 40.1875 58.015625 27.296875 
Q 58.015625 14.40625 51.78125 6.484375 
Q 45.5625 -1.421875 35.59375 -1.421875 
Q 29.59375 -1.421875 25.265625 0.953125 
Q 20.953125 3.328125 18.109375 8.203125 
L 18.109375 0 
L 9.078125 0 
L 9.078125 75.984375 
L 18.109375 75.984375 
z
" id="DejaVuSans-98"/>
      <path d="M 56.203125 29.59375 
L 56.203125 25.203125 
L 14.890625 25.203125 
Q 15.484375 15.921875 20.484375 11.0625 
Q 25.484375 6.203125 34.421875 6.203125 
Q 39.59375 6.203125 44.453125 7.46875 
Q 49.3125 8.734375 54.109375 11.28125 
L 54.109375 2.78125 
Q 49.265625 0.734375 44.1875 -0.34375 
Q 39.109375 -1.421875 33.890625 -1.421875 
Q 20.796875 -1.421875 13.15625 6.1875 
Q 5.515625 13.8125 5.515625 26.8125 
Q 5.515625 40.234375 12.765625 48.109375 
Q 20.015625 56 32.328125 56 
Q 43.359375 56 49.78125 48.890625 
Q 56.203125 41.796875 56.203125 29.59375 
z
M 47.21875 32.234375 
Q 47.125 39.59375 43.09375 43.984375 
Q 39.0625 48.390625 32.421875 48.390625 
Q 24.90625 48.390625 20.390625 44.140625 
Q 15.875 39.890625 15.1875 32.171875 
z
" id="DejaVuSans-101"/>
      <path d="M 48.78125 52.59375 
L 48.78125 44.1875 
Q 44.96875 46.296875 41.140625 47.34375 
Q 37.3125 48.390625 33.40625 48.390625 
Q 24.65625 48.390625 19.8125 42.84375 
Q 14.984375 37.3125 14.984375 27.296875 
Q 14.984375 17.28125 19.8125 11.734375 
Q 24.65625 6.203125 33.40625 6.203125 
Q 37.3125 6.203125 41.140625 7.25 
Q 44.96875 8.296875 48.78125 10.40625 
L 48.78125 2.09375 
Q 45.015625 0.34375 40.984375 -0.53125 
Q 36.96875 -1.421875 32.421875 -1.421875 
Q 20.0625 -1.421875 12.78125 6.34375 
Q 5.515625 14.109375 5.515625 27.296875 
Q 5.515625 40.671875 12.859375 48.328125 
Q 20.21875 56 33.015625 56 
Q 37.15625 56 41.109375 55.140625 
Q 45.0625 54.296875 48.78125 52.59375 
z
" id="DejaVuSans-99"/>
      <path d="M 52 44.1875 
Q 55.375 50.25 60.0625 53.125 
Q 64.75 56 71.09375 56 
Q 79.640625 56 84.28125 50.015625 
Q 88.921875 44.046875 88.921875 33.015625 
L 88.921875 0 
L 79.890625 0 
L 79.890625 32.71875 
Q 79.890625 40.578125 77.09375 44.375 
Q 74.3125 48.1875 68.609375 48.1875 
Q 61.625 48.1875 57.5625 43.546875 
Q 53.515625 38.921875 53.515625 30.90625 
L 53.515625 0 
L 44.484375 0 
L 44.484375 32.71875 
Q 44.484375 40.625 41.703125 44.40625 
Q 38.921875 48.1875 33.109375 48.1875 
Q 26.21875 48.1875 22.15625 43.53125 
Q 18.109375 38.875 18.109375 30.90625 
L 18.109375 0 
L 9.078125 0 
L 9.078125 54.6875 
L 18.109375 54.6875 
L 18.109375 46.1875 
Q 21.1875 51.21875 25.484375 53.609375 
Q 29.78125 56 35.6875 56 
Q 41.65625 56 45.828125 52.96875 
Q 50 49.953125 52 44.1875 
z
" id="DejaVuSans-109"/>
      <path d="M 54.890625 33.015625 
L 54.890625 0 
L 45.90625 0 
L 45.90625 32.71875 
Q 45.90625 40.484375 42.875 44.328125 
Q 39.84375 48.1875 33.796875 48.1875 
Q 26.515625 48.1875 22.3125 43.546875 
Q 18.109375 38.921875 18.109375 30.90625 
L 18.109375 0 
L 9.078125 0 
L 9.078125 54.6875 
L 18.109375 54.6875 
L 18.109375 46.1875 
Q 21.34375 51.125 25.703125 53.5625 
Q 30.078125 56 35.796875 56 
Q 45.21875 56 50.046875 50.171875 
Q 54.890625 44.34375 54.890625 33.015625 
z
" id="DejaVuSans-110"/>
      <path d="M 41.109375 46.296875 
Q 39.59375 47.171875 37.8125 47.578125 
Q 36.03125 48 33.890625 48 
Q 26.265625 48 22.1875 43.046875 
Q 18.109375 38.09375 18.109375 28.8125 
L 18.109375 0 
L 9.078125 0 
L 9.078125 54.6875 
L 18.109375 54.6875 
L 18.109375 46.1875 
Q 20.953125 51.171875 25.484375 53.578125 
Q 30.03125 56 36.53125 56 
Q 37.453125 56 38.578125 55.875 
Q 39.703125 55.765625 41.0625 55.515625 
z
" id="DejaVuSans-114"/>
      <path d="M 45.40625 46.390625 
L 45.40625 75.984375 
L 54.390625 75.984375 
L 54.390625 0 
L 45.40625 0 
L 45.40625 8.203125 
Q 42.578125 3.328125 38.25 0.953125 
Q 33.9375 -1.421875 27.875 -1.421875 
Q 17.96875 -1.421875 11.734375 6.484375 
Q 5.515625 14.40625 5.515625 27.296875 
Q 5.515625 40.1875 11.734375 48.09375 
Q 17.96875 56 27.875 56 
Q 33.9375 56 38.25 53.625 
Q 42.578125 51.265625 45.40625 46.390625 
z
M 14.796875 27.296875 
Q 14.796875 17.390625 18.875 11.75 
Q 22.953125 6.109375 30.078125 6.109375 
Q 37.203125 6.109375 41.296875 11.75 
Q 45.40625 17.390625 45.40625 27.296875 
Q 45.40625 37.203125 41.296875 42.84375 
Q 37.203125 48.484375 30.078125 48.484375 
Q 22.953125 48.484375 18.875 42.84375 
Q 14.796875 37.203125 14.796875 27.296875 
z
" id="DejaVuSans-100"/>
     </defs>
     <g transform="translate(141.427188 335.860562)scale(0.1 -0.1)">
      <use xlink:href="#DejaVuSans-37"/>
      <use x="95.019531" xlink:href="#DejaVuSans-32"/>
      <use x="126.806641" xlink:href="#DejaVuSans-111"/>
      <use x="187.988281" xlink:href="#DejaVuSans-102"/>
      <use x="223.193359" xlink:href="#DejaVuSans-32"/>
      <use x="254.980469" xlink:href="#DejaVuSans-116"/>
      <use x="294.189453" xlink:href="#DejaVuSans-111"/>
      <use x="355.371094" xlink:href="#DejaVuSans-116"/>
      <use x="394.580078" xlink:href="#DejaVuSans-97"/>
      <use x="455.859375" xlink:href="#DejaVuSans-108"/>
      <use x="483.642578" xlink:href="#DejaVuSans-32"/>
      <use x="515.429688" xlink:href="#DejaVuSans-112"/>
      <use x="578.90625" xlink:href="#DejaVuSans-111"/>
      <use x="640.087891" xlink:href="#DejaVuSans-115"/>
      <use x="692.1875" xlink:href="#DejaVuSans-115"/>
      <use x="744.287109" xlink:href="#DejaVuSans-105"/>
      <use x="772.070312" xlink:href="#DejaVuSans-98"/>
      <use x="835.546875" xlink:href="#DejaVuSans-108"/>
      <use x="863.330078" xlink:href="#DejaVuSans-101"/>
      <use x="924.853516" xlink:href="#DejaVuSans-32"/>
      <use x="956.640625" xlink:href="#DejaVuSans-99"/>
      <use x="1011.621094" xlink:href="#DejaVuSans-111"/>
      <use x="1072.802734" xlink:href="#DejaVuSans-109"/>
      <use x="1170.214844" xlink:href="#DejaVuSans-98"/>
      <use x="1233.691406" xlink:href="#DejaVuSans-105"/>
      <use x="1261.474609" xlink:href="#DejaVuSans-110"/>
      <use x="1324.853516" xlink:href="#DejaVuSans-97"/>
      <use x="1386.132812" xlink:href="#DejaVuSans-116"/>
      <use x="1425.341797" xlink:href="#DejaVuSans-105"/>
      <use x="1453.125" xlink:href="#DejaVuSans-111"/>
      <use x="1514.306641" xlink:href="#DejaVuSans-110"/>
      <use x="1577.685547" xlink:href="#DejaVuSans-115"/>
      <use x="1629.785156" xlink:href="#DejaVuSans-32"/>
      <use x="1661.572266" xlink:href="#DejaVuSans-116"/>
      <use x="1700.78125" xlink:href="#DejaVuSans-114"/>
      <use x="1741.894531" xlink:href="#DejaVuSans-105"/>
      <use x="1769.677734" xlink:href="#DejaVuSans-101"/>
      <use x="1831.201172" xlink:href="#DejaVuSans-100"/>
     </g>
    </g>
   </g>
   <g id="matplotlib.axis_2">
    <g id="ytick_1">
     <g id="line2d_13">
      <path clip-path="url(#pcfa2bfde01)" d="M 57.6 295.488 
L 414.72 295.488 
" style="fill:none;stroke:#b0b0b0;stroke-linecap:square;stroke-width:0.8;"/>
     </g>
     <g id="line2d_14">
      <defs>
       <path d="M 0 0 
L -3.5 0 
" id="m23dc3b3e70" style="stroke:#000000;stroke-width:0.8;"/>
      </defs>
      <g>
       <use style="stroke:#000000;stroke-width:0.8;" x="57.6" xlink:href="#m23dc3b3e70" y="295.488"/>
      </g>
     </g>
     <g id="text_8">
      <!-- 0.0 -->
      <g transform="translate(34.696875 299.287219)scale(0.1 -0.1)">
       <use xlink:href="#DejaVuSans-48"/>
       <use x="63.623047" xlink:href="#DejaVuSans-46"/>
       <use x="95.410156" xlink:href="#DejaVuSans-48"/>
      </g>
     </g>
    </g>
    <g id="ytick_2">
     <g id="line2d_15">
      <path clip-path="url(#pcfa2bfde01)" d="M 57.6 247.104 
L 414.72 247.104 
" style="fill:none;stroke:#b0b0b0;stroke-linecap:square;stroke-width:0.8;"/>
     </g>
     <g id="line2d_16">
      <g>
       <use style="stroke:#000000;stroke-width:0.8;" x="57.6" xlink:href="#m23dc3b3e70" y="247.104"/>
      </g>
     </g>
     <g id="text_9">
      <!-- 0.2 -->
      <g transform="translate(34.696875 250.903219)scale(0.1 -0.1)">
       <use xlink:href="#DejaVuSans-48"/>
       <use x="63.623047" xlink:href="#DejaVuSans-46"/>
       <use x="95.410156" xlink:href="#DejaVuSans-50"/>
      </g>
     </g>
    </g>
    <g id="ytick_3">
     <g id="line2d_17">
      <path clip-path="url(#pcfa2bfde01)" d="M 57.6 198.72 
L 414.72 198.72 
" style="fill:none;stroke:#b0b0b0;stroke-linecap:square;stroke-width:0.8;"/>
     </g>
     <g id="line2d_18">
      <g>
       <use style="stroke:#000000;stroke-width:0.8;" x="57.6" xlink:href="#m23dc3b3e70" y="198.72"/>
      </g>
     </g>
     <g id="text_10">
      <!-- 0.4 -->
      <g transform="translate(34.696875 202.519219)scale(0.1 -0.1)">
       <use xlink:href="#DejaVuSans-48"/>
       <use x="63.623047" xlink:href="#DejaVuSans-46"/>
       <use x="95.410156" xlink:href="#DejaVuSans-52"/>
      </g>
     </g>
    </g>
    <g id="ytick_4">
     <g id="line2d_19">
      <path clip-path="url(#pcfa2bfde01)" d="M 57.6 150.336 
L 414.72 150.336 
" style="fill:none;stroke:#b0b0b0;stroke-linecap:square;stroke-width:0.8;"/>
     </g>
     <g id="line2d_20">
      <g>
       <use style="stroke:#000000;stroke-width:0.8;" x="57.6" xlink:href="#m23dc3b3e70" y="150.336"/>
      </g>
     </g>
     <g id="text_11">
      <!-- 0.6 -->
      <g transform="translate(34.696875 154.135219)scale(0.1 -0.1)">
       <use xlink:href="#DejaVuSans-48"/>
       <use x="63.623047" xlink:href="#DejaVuSans-46"/>
       <use x="95.410156" xlink:href="#DejaVuSans-54"/>
      </g>
     </g>
    </g>
    <g id="ytick_5">
     <g id="line2d_21">
      <path clip-path="url(#pcfa2bfde01)" d="M 57.6 101.952 
L 414.72 101.952 
" style="fill:none;stroke:#b0b0b0;stroke-linecap:square;stroke-width:0.8;"/>
     </g>
     <g id="line2d_22">
      <g>
       <use style="stroke:#000000;stroke-width:0.8;" x="57.6" xlink:href="#m23dc3b3e70" y="101.952"/>
      </g>
     </g>
     <g id="text_12">
      <!-- 0.8 -->
      <g transform="translate(34.696875 105.751219)scale(0.1 -0.1)">
       <use xlink:href="#DejaVuSans-48"/>
       <use x="63.623047" xlink:href="#DejaVuSans-46"/>
       <use x="95.410156" xlink:href="#DejaVuSans-56"/>
      </g>
     </g>
    </g>
    <g id="ytick_6">
     <g id="line2d_23">
      <path clip-path="url(#pcfa2bfde01)" d="M 57.6 53.568 
L 414.72 53.568 
" style="fill:none;stroke:#b0b0b0;stroke-linecap:square;stroke-width:0.8;"/>
     </g>
     <g id="line2d_24">
      <g>
       <use style="stroke:#000000;stroke-width:0.8;" x="57.6" xlink:href="#m23dc3b3e70" y="53.568"/>
      </g>
     </g>
     <g id="text_13">
      <!-- 1.0 -->
      <g transform="translate(34.696875 57.367219)scale(0.1 -0.1)">
       <use xlink:href="#DejaVuSans-49"/>
       <use x="63.623047" xlink:href="#DejaVuSans-46"/>
       <use x="95.410156" xlink:href="#DejaVuSans-48"/>
      </g>
     </g>
    </g>
    <g id="text_14">
     <!-- % of real passwords guessed -->
     <defs>
      <path d="M 4.203125 54.6875 
L 13.1875 54.6875 
L 24.421875 12.015625 
L 35.59375 54.6875 
L 46.1875 54.6875 
L 57.421875 12.015625 
L 68.609375 54.6875 
L 77.59375 54.6875 
L 63.28125 0 
L 52.6875 0 
L 40.921875 44.828125 
L 29.109375 0 
L 18.5 0 
z
" id="DejaVuSans-119"/>
      <path d="M 45.40625 27.984375 
Q 45.40625 37.75 41.375 43.109375 
Q 37.359375 48.484375 30.078125 48.484375 
Q 22.859375 48.484375 18.828125 43.109375 
Q 14.796875 37.75 14.796875 27.984375 
Q 14.796875 18.265625 18.828125 12.890625 
Q 22.859375 7.515625 30.078125 7.515625 
Q 37.359375 7.515625 41.375 12.890625 
Q 45.40625 18.265625 45.40625 27.984375 
z
M 54.390625 6.78125 
Q 54.390625 -7.171875 48.1875 -13.984375 
Q 42 -20.796875 29.203125 -20.796875 
Q 24.46875 -20.796875 20.265625 -20.09375 
Q 16.0625 -19.390625 12.109375 -17.921875 
L 12.109375 -9.1875 
Q 16.0625 -11.328125 19.921875 -12.34375 
Q 23.78125 -13.375 27.78125 -13.375 
Q 36.625 -13.375 41.015625 -8.765625 
Q 45.40625 -4.15625 45.40625 5.171875 
L 45.40625 9.625 
Q 42.625 4.78125 38.28125 2.390625 
Q 33.9375 0 27.875 0 
Q 17.828125 0 11.671875 7.65625 
Q 5.515625 15.328125 5.515625 27.984375 
Q 5.515625 40.671875 11.671875 48.328125 
Q 17.828125 56 27.875 56 
Q 33.9375 56 38.28125 53.609375 
Q 42.625 51.21875 45.40625 46.390625 
L 45.40625 54.6875 
L 54.390625 54.6875 
z
" id="DejaVuSans-103"/>
      <path d="M 8.5 21.578125 
L 8.5 54.6875 
L 17.484375 54.6875 
L 17.484375 21.921875 
Q 17.484375 14.15625 20.5 10.265625 
Q 23.53125 6.390625 29.59375 6.390625 
Q 36.859375 6.390625 41.078125 11.03125 
Q 45.3125 15.671875 45.3125 23.6875 
L 45.3125 54.6875 
L 54.296875 54.6875 
L 54.296875 0 
L 45.3125 0 
L 45.3125 8.40625 
Q 42.046875 3.421875 37.71875 1 
Q 33.40625 -1.421875 27.6875 -1.421875 
Q 18.265625 -1.421875 13.375 4.4375 
Q 8.5 10.296875 8.5 21.578125 
z
M 31.109375 56 
z
" id="DejaVuSans-117"/>
     </defs>
     <g transform="translate(28.617187 247.347531)rotate(-90)scale(0.1 -0.1)">
      <use xlink:href="#DejaVuSans-37"/>
      <use x="95.019531" xlink:href="#DejaVuSans-32"/>
      <use x="126.806641" xlink:href="#DejaVuSans-111"/>
      <use x="187.988281" xlink:href="#DejaVuSans-102"/>
      <use x="223.193359" xlink:href="#DejaVuSans-32"/>
      <use x="254.980469" xlink:href="#DejaVuSans-114"/>
      <use x="296.0625" xlink:href="#DejaVuSans-101"/>
      <use x="357.585938" xlink:href="#DejaVuSans-97"/>
      <use x="418.865234" xlink:href="#DejaVuSans-108"/>
      <use x="446.648438" xlink:href="#DejaVuSans-32"/>
      <use x="478.435547" xlink:href="#DejaVuSans-112"/>
      <use x="541.912109" xlink:href="#DejaVuSans-97"/>
      <use x="603.191406" xlink:href="#DejaVuSans-115"/>
      <use x="655.291016" xlink:href="#DejaVuSans-115"/>
      <use x="707.390625" xlink:href="#DejaVuSans-119"/>
      <use x="789.177734" xlink:href="#DejaVuSans-111"/>
      <use x="850.359375" xlink:href="#DejaVuSans-114"/>
      <use x="891.457031" xlink:href="#DejaVuSans-100"/>
      <use x="954.933594" xlink:href="#DejaVuSans-115"/>
      <use x="1007.033203" xlink:href="#DejaVuSans-32"/>
      <use x="1038.820312" xlink:href="#DejaVuSans-103"/>
      <use x="1102.296875" xlink:href="#DejaVuSans-117"/>
      <use x="1165.675781" xlink:href="#DejaVuSans-101"/>
      <use x="1227.199219" xlink:href="#DejaVuSans-115"/>
      <use x="1279.298828" xlink:href="#DejaVuSans-115"/>
      <use x="1331.398438" xlink:href="#DejaVuSans-101"/>
      <use x="1392.921875" xlink:href="#DejaVuSans-100"/>
     </g>
    </g>
   </g>
   <g id="line2d_25">
    <path clip-path="url(#pcfa2bfde01)" d="M 73.832727 295.488 
L 74.157382 287.31157 
L 74.482036 285.163344 
L 74.806691 284.066429 
L 75.131345 283.73728 
L 76.105309 283.671823 
L 77.079273 283.660405 
L 77.403927 283.24891 
L 78.053236 282.927096 
L 78.377891 282.862723 
L 79.0272 282.412587 
L 79.676509 282.305355 
L 80.650473 282.292057 
L 80.975127 278.950103 
L 81.299782 278.076172 
L 81.624436 277.650498 
L 82.273745 277.536253 
L 83.897018 277.52785 
L 84.546327 277.26299 
L 87.468218 276.996553 
L 87.792873 273.745585 
L 88.117527 272.851275 
L 88.442182 272.399377 
L 89.416145 272.261179 
L 90.714764 272.21168 
L 91.364073 271.949648 
L 92.338036 271.867284 
L 92.662691 271.714839 
L 94.610618 271.660224 
L 97.532509 271.608539 
L 98.506473 269.665595 
L 98.831127 269.449149 
L 100.4544 269.412744 
L 101.103709 269.410593 
L 101.428364 263.601207 
L 102.077673 262.61315 
L 102.726982 262.41168 
L 104.350255 262.400025 
L 104.999564 261.973317 
L 105.973527 261.793124 
L 106.298182 261.565125 
L 111.168 261.314071 
L 111.817309 256.603514 
L 112.141964 255.856059 
L 112.791273 255.603819 
L 114.7392 255.574123 
L 115.063855 255.282395 
L 117.661091 254.932036 
L 117.985745 254.931867 
L 118.3104 252.247313 
L 118.635055 243.859977 
L 118.959709 241.627879 
L 119.284364 241.155958 
L 119.609018 240.901871 
L 120.582982 240.832416 
L 121.556945 240.823184 
L 121.8816 240.295207 
L 122.206255 239.992129 
L 122.855564 239.897992 
L 123.504873 239.264529 
L 124.154182 239.162938 
L 124.803491 239.160109 
L 125.128145 237.989437 
L 125.4528 231.932808 
L 125.777455 231.097535 
L 126.102109 230.736217 
L 126.751418 230.57232 
L 128.374691 230.560614 
L 128.699345 222.132469 
L 129.348655 221.200146 
L 129.997964 220.952717 
L 131.945891 220.843842 
L 132.270545 220.430534 
L 133.244509 220.313104 
L 133.569164 219.943315 
L 134.543127 219.866559 
L 135.192436 219.865407 
L 135.517091 219.304244 
L 136.1664 219.153714 
L 136.491055 219.128913 
L 136.815709 218.745369 
L 137.465018 218.652147 
L 138.763636 218.643982 
L 139.088291 209.411853 
L 139.412945 208.493708 
L 139.7376 208.095833 
L 140.062255 207.910557 
L 142.010182 207.859466 
L 142.334836 207.348616 
L 142.659491 207.172776 
L 142.984145 207.125394 
L 143.3088 206.831989 
L 143.958109 206.599772 
L 145.581382 206.57614 
L 145.906036 205.739885 
L 146.230691 205.640836 
L 146.88 205.008981 
L 147.853964 204.853233 
L 148.827927 204.841696 
L 149.152582 194.204103 
L 149.477236 191.67274 
L 149.801891 190.83518 
L 150.126545 190.417975 
L 150.775855 190.277033 
L 152.399127 190.259042 
L 152.723782 185.821257 
L 153.373091 185.294144 
L 154.0224 185.18964 
L 155.645673 185.180797 
L 155.970327 184.935824 
L 156.944291 184.762305 
L 157.5936 184.575827 
L 159.216873 184.563427 
L 159.541527 183.925864 
L 160.190836 183.658004 
L 161.814109 183.616433 
L 162.463418 183.615332 
L 162.788073 178.767982 
L 163.112727 176.304532 
L 163.437382 175.635833 
L 163.762036 175.33372 
L 164.411345 175.21148 
L 166.034618 175.194709 
L 166.359273 174.689483 
L 167.008582 174.580032 
L 167.657891 174.16359 
L 168.631855 174.091221 
L 172.852364 173.992646 
L 173.177018 166.379463 
L 173.501673 164.408855 
L 174.150982 163.763363 
L 174.800291 163.41658 
L 175.774255 163.315379 
L 176.098909 163.314041 
L 176.423564 163.055549 
L 176.748218 162.653659 
L 177.397527 162.456661 
L 178.046836 161.984079 
L 179.670109 161.954416 
L 179.994764 152.872565 
L 180.319418 152.047608 
L 180.644073 151.604723 
L 180.968727 151.427003 
L 181.942691 151.365222 
L 182.916655 151.346045 
L 183.890618 150.834941 
L 184.215273 150.812428 
L 184.539927 150.50298 
L 185.189236 150.41528 
L 186.487855 150.405574 
L 186.812509 144.119235 
L 187.137164 142.796558 
L 187.786473 142.375728 
L 189.085091 142.310864 
L 190.059055 142.263736 
L 190.383709 141.990337 
L 191.033018 141.943176 
L 191.682327 141.670929 
L 193.3056 141.648466 
L 193.630255 137.417081 
L 193.954909 136.78189 
L 194.279564 136.482742 
L 194.928873 136.33504 
L 196.552145 136.311781 
L 196.8768 135.325571 
L 197.201455 129.821566 
L 197.850764 129.557536 
L 198.824727 129.341734 
L 200.123345 129.309598 
L 200.448 118.507837 
L 200.772655 114.076557 
L 203.045236 113.982302 
L 203.694545 113.981472 
L 204.0192 113.582969 
L 204.993164 113.378077 
L 205.317818 113.183433 
L 206.616436 113.132121 
L 206.941091 113.132037 
L 207.265745 107.717121 
L 207.5904 106.306863 
L 207.915055 105.67921 
L 208.564364 105.397595 
L 210.512291 105.366781 
L 210.836945 103.86535 
L 211.1616 103.408014 
L 211.810909 103.225822 
L 217.330036 102.989251 
L 217.654691 102.712786 
L 218.628655 102.579602 
L 218.953309 102.438998 
L 220.576582 102.424396 
L 221.225891 98.09745 
L 221.8752 97.820664 
L 223.173818 97.766726 
L 224.147782 97.762101 
L 224.472436 94.797016 
L 224.797091 94.320081 
L 225.771055 94.15034 
L 230.965527 93.845686 
L 231.290182 91.963354 
L 231.939491 91.639389 
L 232.913455 91.562971 
L 234.212073 91.55423 
L 234.536727 90.343206 
L 234.861382 88.110939 
L 236.16 87.838844 
L 238.757236 87.616605 
L 239.7312 87.473613 
L 241.029818 87.467836 
L 241.679127 84.746623 
L 242.328436 84.414814 
L 243.3024 84.359657 
L 244.601018 84.352728 
L 244.925673 81.737273 
L 245.250327 80.840185 
L 247.522909 80.732666 
L 247.847564 80.732208 
L 248.172218 80.203215 
L 248.496873 78.120243 
L 250.4448 77.978504 
L 251.418764 77.973032 
L 251.743418 75.738512 
L 252.068073 74.603837 
L 253.691345 74.458693 
L 254.665309 74.449681 
L 254.989964 74.256698 
L 255.314618 73.84732 
L 255.639273 73.779441 
L 256.613236 73.282939 
L 258.236509 73.245247 
L 258.561164 65.685425 
L 258.885818 64.482312 
L 259.210473 63.975189 
L 259.535127 63.741989 
L 260.184436 63.656594 
L 261.483055 63.624712 
L 261.807709 63.356514 
L 262.132364 61.101124 
L 264.404945 60.964247 
L 265.054255 60.963654 
L 265.703564 58.566524 
L 267.002182 58.427242 
L 268.625455 58.399426 
L 268.950109 57.157062 
L 269.924073 56.925455 
L 278.689745 56.687174 
L 279.663709 55.99015 
L 280.313018 55.885951 
L 289.078691 55.772011 
L 289.403345 55.249895 
L 290.701964 55.114289 
L 300.4416 55.000874 
L 301.740218 54.946851 
L 304.337455 54.821358 
L 308.882618 54.793813 
L 309.531927 54.793813 
L 310.181236 54.58411 
L 312.129164 54.422618 
L 323.816727 54.20104 
L 328.686545 54.013698 
L 337.776873 53.877871 
L 340.698764 53.823171 
L 366.021818 53.677485 
L 398.487273 53.568 
L 398.487273 53.568 
" style="fill:none;stroke:#1f77b4;stroke-linecap:square;stroke-width:1.5;"/>
   </g>
   <g id="line2d_26">
    <path clip-path="url(#pcfa2bfde01)" d="M 74.157707 295.486848 
L 80.007338 295.389577 
L 81.632236 295.352935 
L 85.207011 295.235675 
L 103.405864 295.027395 
L 105.680721 294.941355 
L 108.605536 294.847964 
L 109.580475 294.778915 
L 110.880393 294.624657 
L 111.855332 294.556846 
L 118.029943 294.506313 
L 124.204554 294.377414 
L 126.80439 294.320715 
L 129.079246 294.305113 
L 129.404226 281.042934 
L 129.729206 279.087827 
L 132.329042 278.975513 
L 132.979001 269.70432 
L 134.278919 269.524279 
L 135.253857 268.30448 
L 135.903816 268.289488 
L 136.228796 262.206212 
L 136.553776 261.791887 
L 137.853694 261.626533 
L 138.503653 261.319627 
L 139.153612 261.300501 
L 139.803571 257.926597 
L 141.428468 257.79487 
L 142.078427 257.638139 
L 142.728386 257.628432 
L 143.053366 254.570142 
L 143.378346 254.227204 
L 144.678264 254.133846 
L 145.328223 253.898834 
L 145.978182 253.880979 
L 146.303161 252.47482 
L 146.628141 250.536805 
L 148.578018 250.40047 
L 149.552957 250.353918 
L 149.877936 248.37855 
L 150.202916 247.826095 
L 152.802752 247.697298 
L 153.127731 246.799939 
L 153.452711 245.3176 
L 155.402588 245.180469 
L 156.377527 245.128903 
L 156.702506 243.16314 
L 157.027486 242.52063 
L 158.977363 242.382398 
L 159.627322 242.374656 
L 159.952301 241.212386 
L 160.277281 238.872972 
L 185.950663 238.566337 
L 187.250581 238.476486 
L 187.90054 238.367136 
L 188.875479 237.687189 
L 189.200459 237.59832 
L 189.525438 237.289703 
L 189.850418 237.151758 
L 191.150336 237.100429 
L 191.800295 236.556275 
L 193.425192 235.785087 
L 194.400131 235.748242 
L 195.05009 235.252486 
L 195.375069 235.024419 
L 195.700049 235.010139 
L 196.025029 234.861319 
L 196.350008 234.573013 
L 196.999967 234.500983 
L 197.974906 234.457328 
L 198.624865 233.943581 
L 199.274824 233.709789 
L 199.924783 233.437084 
L 201.224701 233.376811 
L 201.87466 233.278575 
L 202.19964 233.100126 
L 205.124455 232.735572 
L 206.749353 232.327532 
L 208.69923 232.098365 
L 209.349189 231.920611 
L 210.649107 231.641927 
L 211.624046 231.61982 
L 212.274005 231.344642 
L 213.248943 231.132771 
L 213.898902 231.02481 
L 215.5238 230.947038 
L 215.84878 230.718582 
L 216.498739 230.663712 
L 217.148698 230.489804 
L 218.448616 230.429564 
L 219.098575 229.864217 
L 220.723472 229.279847 
L 221.698411 229.246237 
L 223.973268 228.442524 
L 225.273186 228.387706 
L 226.248124 227.691021 
L 227.873022 227.206547 
L 228.522981 227.155574 
L 229.17294 226.491431 
L 230.797838 225.521196 
L 231.772776 225.455908 
L 232.097756 225.451097 
L 232.747715 225.126082 
L 233.397674 225.076193 
L 234.047633 224.853005 
L 238.922326 224.577336 
L 239.897265 224.055729 
L 240.222244 224.049969 
L 240.872203 223.707167 
L 241.847142 223.664901 
L 245.746896 223.535494 
L 246.396855 223.242055 
L 246.721835 223.076685 
L 247.046814 223.062099 
L 247.696773 222.752702 
L 249.321671 222.649113 
L 249.64665 222.162792 
L 251.271548 221.076143 
L 252.571466 221.012939 
L 253.546405 220.446508 
L 253.871384 220.420454 
L 254.521343 220.039333 
L 255.171302 219.981194 
L 259.396036 219.872166 
L 261.670893 219.632801 
L 262.970811 219.618537 
L 263.62077 219.454183 
L 278.244849 218.827292 
L 282.144603 218.807556 
L 296.443702 218.706897 
L 296.768682 218.299671 
L 297.418641 218.205009 
L 298.0686 218.189712 
L 298.393579 217.423216 
L 298.718559 215.114007 
L 299.043538 207.897767 
L 299.368518 206.890772 
L 299.693497 206.885977 
L 300.668436 206.576462 
L 301.643374 206.563706 
L 302.293333 198.786016 
L 302.618313 196.290887 
L 303.268272 196.275506 
L 303.593252 196.046846 
L 304.56819 195.975494 
L 304.89317 195.972614 
L 305.218149 193.512145 
L 305.868108 186.25264 
L 306.193088 185.497698 
L 306.843047 185.379116 
L 307.168026 185.222233 
L 308.467944 185.200227 
L 308.792924 181.094979 
L 309.117903 178.466565 
L 309.442883 177.218204 
L 309.767862 177.07655 
L 310.417822 176.971334 
L 311.71774 176.931304 
L 312.042719 176.662869 
L 312.367699 175.749451 
L 312.692678 172.886278 
L 313.017658 172.312817 
L 313.667617 172.285086 
L 314.317576 172.187578 
L 315.292514 172.18148 
L 316.267453 167.672596 
L 318.54231 167.477699 
L 318.867289 166.472956 
L 319.842228 162.313753 
L 320.492187 162.282109 
L 321.142146 162.153583 
L 322.117084 162.146688 
L 322.767043 157.911542 
L 323.092023 157.312061 
L 323.741982 157.1824 
L 324.716921 157.071729 
L 325.36688 157.058821 
L 325.691859 156.816101 
L 326.016839 156.156363 
L 326.341818 152.972105 
L 326.666798 152.450414 
L 327.316757 152.362324 
L 327.641736 152.073375 
L 328.941654 152.05059 
L 329.266634 147.721629 
L 329.916593 142.877786 
L 330.566552 142.824492 
L 330.891532 142.607352 
L 331.541491 142.519161 
L 332.19145 142.51435 
L 332.516429 140.494022 
L 332.841409 137.404003 
L 333.166388 135.767677 
L 333.491368 135.064301 
L 334.141327 135.02478 
L 334.466306 134.833304 
L 335.766224 134.812434 
L 336.741163 125.661364 
L 337.066143 125.432213 
L 337.391122 125.426928 
L 337.716102 125.120733 
L 338.366061 124.994291 
L 339.01602 124.984889 
L 339.340999 123.627264 
L 339.665979 115.28914 
L 339.990958 112.589 
L 340.315938 110.852777 
L 340.965897 110.84302 
L 341.290876 110.690659 
L 342.590794 110.670602 
L 342.915774 108.196598 
L 343.565733 105.249215 
L 343.890713 105.111999 
L 346.165569 105.046746 
L 346.490549 104.502777 
L 346.815528 103.397037 
L 347.140508 102.914917 
L 347.790467 102.89608 
L 348.115446 102.725661 
L 349.415365 102.694796 
L 350.065324 97.694578 
L 350.390303 94.866844 
L 351.365242 94.791206 
L 353.640098 94.597172 
L 353.965078 94.154202 
L 354.615037 94.138396 
L 354.940016 93.952477 
L 356.239935 93.927982 
L 356.564914 92.293502 
L 357.214873 87.399398 
L 357.539853 87.142736 
L 357.864832 87.139365 
L 358.514791 86.735408 
L 359.814709 86.707168 
L 360.139689 79.470109 
L 360.789648 73.034985 
L 361.439607 73.008388 
L 361.764586 72.83592 
L 363.064505 72.804072 
L 363.389484 71.168373 
L 364.039443 64.942579 
L 364.364423 64.434303 
L 366.639279 64.393613 
L 366.964259 64.230817 
L 367.614218 63.487394 
L 369.889075 63.384059 
L 370.214054 62.744412 
L 370.539034 61.529001 
L 370.864013 61.229666 
L 373.13887 61.084878 
L 373.463849 61.083675 
L 373.788829 59.411978 
L 374.113808 58.361954 
L 374.438788 58.080814 
L 376.713645 57.982221 
L 377.363604 57.606639 
L 378.013563 57.265022 
L 380.288419 57.184827 
L 380.938378 55.520024 
L 381.263358 55.108732 
L 383.538215 55.036025 
L 384.513153 53.733777 
L 385.163112 53.621887 
L 398.487273 53.568102 
L 398.487273 53.568102 
" style="fill:none;stroke:#ff7f0e;stroke-linecap:square;stroke-width:1.5;"/>
   </g>
   <g id="patch_3">
    <path d="M 57.6 307.584 
L 57.6 41.472 
" style="fill:none;stroke:#000000;stroke-linecap:square;stroke-linejoin:miter;stroke-width:0.8;"/>
   </g>
   <g id="patch_4">
    <path d="M 414.72 307.584 
L 414.72 41.472 
" style="fill:none;stroke:#000000;stroke-linecap:square;stroke-linejoin:miter;stroke-width:0.8;"/>
   </g>
   <g id="patch_5">
    <path d="M 57.6 307.584 
L 414.72 307.584 
" style="fill:none;stroke:#000000;stroke-linecap:square;stroke-linejoin:miter;stroke-width:0.8;"/>
   </g>
   <g id="patch_6">
    <path d="M 57.6 41.472 
L 414.72 41.472 
" style="fill:none;stroke:#000000;stroke-linecap:square;stroke-linejoin:miter;stroke-width:0.8;"/>
   </g>
   <g id="text_15">
    <!-- rockyou naive vs sophisticated approach -->
    <defs>
     <path d="M 9.078125 75.984375 
L 18.109375 75.984375 
L 18.109375 31.109375 
L 44.921875 54.6875 
L 56.390625 54.6875 
L 27.390625 29.109375 
L 57.625 0 
L 45.90625 0 
L 18.109375 26.703125 
L 18.109375 0 
L 9.078125 0 
z
" id="DejaVuSans-107"/>
     <path d="M 32.171875 -5.078125 
Q 28.375 -14.84375 24.75 -17.8125 
Q 21.140625 -20.796875 15.09375 -20.796875 
L 7.90625 -20.796875 
L 7.90625 -13.28125 
L 13.1875 -13.28125 
Q 16.890625 -13.28125 18.9375 -11.515625 
Q 21 -9.765625 23.484375 -3.21875 
L 25.09375 0.875 
L 2.984375 54.6875 
L 12.5 54.6875 
L 29.59375 11.921875 
L 46.6875 54.6875 
L 56.203125 54.6875 
z
" id="DejaVuSans-121"/>
     <path d="M 2.984375 54.6875 
L 12.5 54.6875 
L 29.59375 8.796875 
L 46.6875 54.6875 
L 56.203125 54.6875 
L 35.6875 0 
L 23.484375 0 
z
" id="DejaVuSans-118"/>
     <path d="M 54.890625 33.015625 
L 54.890625 0 
L 45.90625 0 
L 45.90625 32.71875 
Q 45.90625 40.484375 42.875 44.328125 
Q 39.84375 48.1875 33.796875 48.1875 
Q 26.515625 48.1875 22.3125 43.546875 
Q 18.109375 38.921875 18.109375 30.90625 
L 18.109375 0 
L 9.078125 0 
L 9.078125 75.984375 
L 18.109375 75.984375 
L 18.109375 46.1875 
Q 21.34375 51.125 25.703125 53.5625 
Q 30.078125 56 35.796875 56 
Q 45.21875 56 50.046875 50.171875 
Q 54.890625 44.34375 54.890625 33.015625 
z
" id="DejaVuSans-104"/>
    </defs>
    <g transform="translate(113.27625 35.472)scale(0.12 -0.12)">
     <use xlink:href="#DejaVuSans-114"/>
     <use x="41.082031" xlink:href="#DejaVuSans-111"/>
     <use x="102.263672" xlink:href="#DejaVuSans-99"/>
     <use x="157.244141" xlink:href="#DejaVuSans-107"/>
     <use x="215.107422" xlink:href="#DejaVuSans-121"/>
     <use x="274.287109" xlink:href="#DejaVuSans-111"/>
     <use x="335.46875" xlink:href="#DejaVuSans-117"/>
     <use x="398.847656" xlink:href="#DejaVuSans-32"/>
     <use x="430.634766" xlink:href="#DejaVuSans-110"/>
     <use x="494.013672" xlink:href="#DejaVuSans-97"/>
     <use x="555.292969" xlink:href="#DejaVuSans-105"/>
     <use x="583.076172" xlink:href="#DejaVuSans-118"/>
     <use x="642.255859" xlink:href="#DejaVuSans-101"/>
     <use x="703.779297" xlink:href="#DejaVuSans-32"/>
     <use x="735.566406" xlink:href="#DejaVuSans-118"/>
     <use x="794.746094" xlink:href="#DejaVuSans-115"/>
     <use x="846.845703" xlink:href="#DejaVuSans-32"/>
     <use x="878.632812" xlink:href="#DejaVuSans-115"/>
     <use x="930.732422" xlink:href="#DejaVuSans-111"/>
     <use x="991.914062" xlink:href="#DejaVuSans-112"/>
     <use x="1055.390625" xlink:href="#DejaVuSans-104"/>
     <use x="1118.769531" xlink:href="#DejaVuSans-105"/>
     <use x="1146.552734" xlink:href="#DejaVuSans-115"/>
     <use x="1198.652344" xlink:href="#DejaVuSans-116"/>
     <use x="1237.861328" xlink:href="#DejaVuSans-105"/>
     <use x="1265.644531" xlink:href="#DejaVuSans-99"/>
     <use x="1320.625" xlink:href="#DejaVuSans-97"/>
     <use x="1381.904297" xlink:href="#DejaVuSans-116"/>
     <use x="1421.113281" xlink:href="#DejaVuSans-101"/>
     <use x="1482.636719" xlink:href="#DejaVuSans-100"/>
     <use x="1546.113281" xlink:href="#DejaVuSans-32"/>
     <use x="1577.900391" xlink:href="#DejaVuSans-97"/>
     <use x="1639.179688" xlink:href="#DejaVuSans-112"/>
     <use x="1702.65625" xlink:href="#DejaVuSans-112"/>
     <use x="1766.132812" xlink:href="#DejaVuSans-114"/>
     <use x="1807.214844" xlink:href="#DejaVuSans-111"/>
     <use x="1868.396484" xlink:href="#DejaVuSans-97"/>
     <use x="1929.675781" xlink:href="#DejaVuSans-99"/>
     <use x="1984.65625" xlink:href="#DejaVuSans-104"/>
    </g>
   </g>
   <g id="legend_1">
    <g id="patch_7">
     <path d="M 64.6 78.82825 
L 214.68125 78.82825 
Q 216.68125 78.82825 216.68125 76.82825 
L 216.68125 48.472 
Q 216.68125 46.472 214.68125 46.472 
L 64.6 46.472 
Q 62.6 46.472 62.6 48.472 
L 62.6 76.82825 
Q 62.6 78.82825 64.6 78.82825 
z
" style="fill:#ffffff;opacity:0.8;stroke:#cccccc;stroke-linejoin:miter;"/>
    </g>
    <g id="line2d_27">
     <path d="M 66.6 54.570437 
L 86.6 54.570437 
" style="fill:none;stroke:#1f77b4;stroke-linecap:square;stroke-width:1.5;"/>
    </g>
    <g id="line2d_28"/>
    <g id="text_16">
     <!-- Sophisticated approach -->
     <defs>
      <path d="M 53.515625 70.515625 
L 53.515625 60.890625 
Q 47.90625 63.578125 42.921875 64.890625 
Q 37.9375 66.21875 33.296875 66.21875 
Q 25.25 66.21875 20.875 63.09375 
Q 16.5 59.96875 16.5 54.203125 
Q 16.5 49.359375 19.40625 46.890625 
Q 22.3125 44.4375 30.421875 42.921875 
L 36.375 41.703125 
Q 47.40625 39.59375 52.65625 34.296875 
Q 57.90625 29 57.90625 20.125 
Q 57.90625 9.515625 50.796875 4.046875 
Q 43.703125 -1.421875 29.984375 -1.421875 
Q 24.8125 -1.421875 18.96875 -0.25 
Q 13.140625 0.921875 6.890625 3.21875 
L 6.890625 13.375 
Q 12.890625 10.015625 18.65625 8.296875 
Q 24.421875 6.59375 29.984375 6.59375 
Q 38.421875 6.59375 43.015625 9.90625 
Q 47.609375 13.234375 47.609375 19.390625 
Q 47.609375 24.75 44.3125 27.78125 
Q 41.015625 30.8125 33.5 32.328125 
L 27.484375 33.5 
Q 16.453125 35.6875 11.515625 40.375 
Q 6.59375 45.0625 6.59375 53.421875 
Q 6.59375 63.09375 13.40625 68.65625 
Q 20.21875 74.21875 32.171875 74.21875 
Q 37.3125 74.21875 42.625 73.28125 
Q 47.953125 72.359375 53.515625 70.515625 
z
" id="DejaVuSans-83"/>
     </defs>
     <g transform="translate(94.6 58.070437)scale(0.1 -0.1)">
      <use xlink:href="#DejaVuSans-83"/>
      <use x="63.476562" xlink:href="#DejaVuSans-111"/>
      <use x="124.658203" xlink:href="#DejaVuSans-112"/>
      <use x="188.134766" xlink:href="#DejaVuSans-104"/>
      <use x="251.513672" xlink:href="#DejaVuSans-105"/>
      <use x="279.296875" xlink:href="#DejaVuSans-115"/>
      <use x="331.396484" xlink:href="#DejaVuSans-116"/>
      <use x="370.605469" xlink:href="#DejaVuSans-105"/>
      <use x="398.388672" xlink:href="#DejaVuSans-99"/>
      <use x="453.369141" xlink:href="#DejaVuSans-97"/>
      <use x="514.648438" xlink:href="#DejaVuSans-116"/>
      <use x="553.857422" xlink:href="#DejaVuSans-101"/>
      <use x="615.380859" xlink:href="#DejaVuSans-100"/>
      <use x="678.857422" xlink:href="#DejaVuSans-32"/>
      <use x="710.644531" xlink:href="#DejaVuSans-97"/>
      <use x="771.923828" xlink:href="#DejaVuSans-112"/>
      <use x="835.400391" xlink:href="#DejaVuSans-112"/>
      <use x="898.876953" xlink:href="#DejaVuSans-114"/>
      <use x="939.958984" xlink:href="#DejaVuSans-111"/>
      <use x="1001.140625" xlink:href="#DejaVuSans-97"/>
      <use x="1062.419922" xlink:href="#DejaVuSans-99"/>
      <use x="1117.400391" xlink:href="#DejaVuSans-104"/>
     </g>
    </g>
    <g id="line2d_29">
     <path d="M 66.6 69.248562 
L 86.6 69.248562 
" style="fill:none;stroke:#ff7f0e;stroke-linecap:square;stroke-width:1.5;"/>
    </g>
    <g id="line2d_30"/>
    <g id="text_17">
     <!-- Naive approach -->
     <defs>
      <path d="M 9.8125 72.90625 
L 23.09375 72.90625 
L 55.421875 11.921875 
L 55.421875 72.90625 
L 64.984375 72.90625 
L 64.984375 0 
L 51.703125 0 
L 19.390625 60.984375 
L 19.390625 0 
L 9.8125 0 
z
" id="DejaVuSans-78"/>
     </defs>
     <g transform="translate(94.6 72.748562)scale(0.1 -0.1)">
      <use xlink:href="#DejaVuSans-78"/>
      <use x="74.804688" xlink:href="#DejaVuSans-97"/>
      <use x="136.083984" xlink:href="#DejaVuSans-105"/>
      <use x="163.867188" xlink:href="#DejaVuSans-118"/>
      <use x="223.046875" xlink:href="#DejaVuSans-101"/>
      <use x="284.570312" xlink:href="#DejaVuSans-32"/>
      <use x="316.357422" xlink:href="#DejaVuSans-97"/>
      <use x="377.636719" xlink:href="#DejaVuSans-112"/>
      <use x="441.113281" xlink:href="#DejaVuSans-112"/>
      <use x="504.589844" xlink:href="#DejaVuSans-114"/>
      <use x="545.671875" xlink:href="#DejaVuSans-111"/>
      <use x="606.853516" xlink:href="#DejaVuSans-97"/>
      <use x="668.132812" xlink:href="#DejaVuSans-99"/>
      <use x="723.113281" xlink:href="#DejaVuSans-104"/>
     </g>
    </g>
   </g>
  </g>
 </g>
 <defs>
  <clipPath id="pcfa2bfde01">
   <rect height="266.112" width="357.12" x="57.6" y="41.472"/>
  </clipPath>
 </defs>
</svg>
